<svg width="50" height="44" viewBox="0 0 50 44" fill="none" xmlns="http://www.w3.org/2000/svg">
<path d="M49.9429 9.07989C49.7482 8.24979 49.1333 7.72713 48.5799 7.30695C44.7676 4.40672 40.4634 2.13162 35.8004 0.543154C35.7594 0.522658 35.7184 0.512409 35.6672 0.491913C35.657 0.491913 35.3188 0.379183 34.8474 0.22546C34.4989 0.122978 34.3349 0.0717373 34.3349 0.0717373C34.1607 0.0204964 33.9763 0 33.802 0C32.8695 0 32.0701 0.67638 31.9061 1.60896C31.7012 2.808 30.8198 6.17965 29.2621 7.37869C28.0323 8.33177 26.6283 8.81344 25.0808 8.81344H25.0296C25.0193 8.81344 25.0193 8.81344 25.0091 8.81344H24.9579C23.4104 8.81344 21.9961 8.33177 20.7766 7.37869C19.2291 6.16941 18.3478 2.808 18.1326 1.60896C17.9686 0.67638 17.1795 0 16.2367 0C16.0522 0 15.878 0.0204964 15.7037 0.0717373C15.7037 0.0717373 15.5398 0.122978 15.1913 0.22546C14.7199 0.368935 14.392 0.481665 14.3817 0.491913C14.351 0.502161 14.3202 0.512409 14.2997 0.522658C9.60608 2.09063 5.21986 4.41697 1.27431 7.42993C-0.0579571 8.4445 -0.334658 9.58205 0.392963 11.1193C1.76622 14.0503 2.82178 16.2844 3.8261 18.3852C4.03107 18.8054 4.63571 20.0967 6.29592 20.0967C6.54187 20.0967 6.80832 20.0659 7.11577 20.0147C8.50952 19.7482 9.87253 19.4818 11.3175 19.2153C11.3585 19.2051 11.4098 19.1948 11.4508 19.1846V23.5503C11.4508 29.0843 11.4508 34.6286 11.4508 40.1626C11.4508 42.079 12.4961 43.1346 14.4022 43.1346C17.8251 43.1346 21.2378 43.1346 24.6607 43.1346H35.493C37.5631 43.1346 38.5674 42.12 38.5674 40.0294V19.1743L38.7314 19.2051C40.1252 19.4715 41.4882 19.7278 42.8512 19.984C43.1894 20.0454 43.4661 20.0762 43.7325 20.0762C45.3825 20.0762 45.9871 18.7952 46.2126 18.3135C47.4014 15.8129 48.4877 13.5071 49.5432 11.273C49.8302 10.6479 50.1274 9.89974 49.9429 9.07989ZM47.0324 10.0945C45.9769 12.3286 44.8906 14.6344 43.7018 17.135C43.6608 17.2169 43.63 17.2682 43.6095 17.3092C43.5481 17.2989 43.4661 17.2887 43.3533 17.2682C41.9903 17.012 40.6273 16.7455 39.2336 16.4893L37.4299 16.1511C37.0302 16.0691 36.61 16.1819 36.2923 16.4483C35.9747 16.7148 35.7902 17.1042 35.7902 17.5141V40.0396C35.7902 40.1831 35.7799 40.2856 35.7799 40.3676C35.7082 40.3778 35.616 40.3778 35.4827 40.3778H24.6504C21.2275 40.3778 17.8149 40.3778 14.392 40.3778C14.3202 40.3778 14.2588 40.3778 14.2075 40.3676C14.2075 40.3163 14.1973 40.2446 14.1973 40.1626C14.1973 34.6286 14.1973 29.0843 14.1973 23.5503V17.5141C14.1973 17.1042 14.0128 16.7148 13.6951 16.4483C13.3774 16.1819 12.9572 16.0794 12.5576 16.1511C11.9632 16.2639 11.3688 16.3766 10.7846 16.4893C9.33963 16.766 7.96637 17.0222 6.57262 17.2989C6.49063 17.3194 6.42914 17.3194 6.3779 17.3297C6.35741 17.2989 6.33691 17.2579 6.31641 17.2067C5.32234 15.1058 4.26678 12.8717 2.89352 9.95098C2.85253 9.869 2.83203 9.80751 2.81153 9.75627C2.85253 9.72552 2.89352 9.68453 2.95501 9.64354C6.6751 6.80479 10.8154 4.62193 15.2426 3.14619C15.2733 3.13594 15.2938 3.1257 15.3143 3.11545C15.3246 3.11545 15.3246 3.11545 15.3348 3.1052C15.3861 3.0847 15.4885 3.05396 15.6115 3.01297C16.0009 4.65267 17.0155 7.96284 19.0856 9.5718C20.8073 10.9143 22.7852 11.5907 24.9681 11.5907H25.0296H25.0911C27.2739 11.5907 29.2518 10.9143 30.9735 9.5718C33.0539 7.95259 34.0582 4.65267 34.4477 3.01297C34.5706 3.05396 34.6629 3.0847 34.7141 3.1052C34.7551 3.1257 34.7961 3.13594 34.8371 3.15644C39.2438 4.65267 43.3021 6.79455 46.8992 9.52056C47.0324 9.62304 47.1144 9.69478 47.1759 9.74602C47.1554 9.81776 47.1042 9.93049 47.0324 10.0945Z" fill="white"/>
<path fill-rule="evenodd" clip-rule="evenodd" d="M31.291 16.6973C31.6793 16.6973 31.9942 17.0121 31.9942 17.4004V23.6504C31.9942 24.0387 31.6793 24.3535 31.291 24.3535C30.9028 24.3535 30.5879 24.0387 30.5879 23.6504V19.0979L20.4885 29.1973H25.041C25.4293 29.1973 25.7441 29.5121 25.7441 29.9004C25.7441 30.2887 25.4293 30.6035 25.041 30.6035H18.791C18.6045 30.6035 18.4257 30.5295 18.2938 30.3976C18.162 30.2657 18.0879 30.0868 18.0879 29.9004V23.6504C18.0879 23.2621 18.4027 22.9473 18.791 22.9473C19.1793 22.9473 19.4941 23.2621 19.4941 23.6504V28.2029L29.5935 18.1035H25.041C24.6527 18.1035 24.3379 17.7887 24.3379 17.4004C24.3379 17.0121 24.6527 16.6973 25.041 16.6973H31.291Z" fill="white"/>
</svg>
