<svg width="52" height="47" viewBox="0 0 52 47" fill="none" xmlns="http://www.w3.org/2000/svg">
<path d="M2.06033 33.1602C0.683908 33.4239 -0.217886 34.7528 0.0457965 36.1293C0.277837 37.3422 1.34311 38.186 2.53496 38.186C2.69317 38.186 2.85665 38.1702 3.01486 38.1386L13.4567 36.1346C14.0526 36.0186 14.5852 35.6969 14.9649 35.2222L19.4475 29.5689L17.9499 28.8042C16.8424 28.2452 16.0724 27.2327 15.8087 26.0039L11.5793 31.3356L2.06033 33.1602Z" fill="white"/>
<path d="M39.2498 11.1168C42.3197 11.1168 44.8083 8.62825 44.8083 5.55842C44.8083 2.48859 42.3197 0 39.2498 0C36.18 0 33.6914 2.48859 33.6914 5.55842C33.6914 8.62825 36.18 11.1168 39.2498 11.1168Z" fill="white"/>
<path d="M27.1214 4.16468C26.536 3.56349 25.9929 3.32617 25.3969 3.32617C25.1807 3.32617 24.9645 3.35781 24.7324 3.41055L15.1924 5.67294C13.874 5.98409 13.0619 7.30777 13.373 8.62091C13.642 9.74947 14.644 10.5089 15.7567 10.5089C15.9466 10.5089 16.1364 10.4878 16.3263 10.4403L24.453 8.51544C24.9804 9.10081 27.6225 11.9644 28.1024 12.4707C24.7431 16.0673 21.3837 19.6587 18.0244 23.2553C17.9716 23.3133 17.9242 23.3713 17.8767 23.4293C16.8958 24.6792 17.1965 26.641 18.6731 27.3845L20.4608 28.2969L28.9725 32.6424L23.625 41.307C22.892 42.4989 23.2612 44.0598 24.453 44.7981C24.8696 45.0565 25.3284 45.1778 25.7819 45.1778C26.631 45.1778 27.4642 44.7507 27.9441 43.9754L34.7366 32.9693C35.111 32.3629 35.2112 31.6298 35.0161 30.9495C34.8209 30.264 34.3516 29.6944 33.7135 29.3727L26.7364 25.8235L34.0721 17.9764L39.6095 22.6699C40.0682 23.0601 40.6325 23.25 41.1916 23.25C41.7927 23.25 42.3939 23.0285 42.8633 22.5961L49.218 16.6738C50.2095 15.7509 50.2675 14.2004 49.3446 13.209C48.8594 12.6922 48.2055 12.4285 47.5515 12.4285C46.9556 12.4285 46.3544 12.6447 45.885 13.0824L41.1282 17.507C41.1229 17.5123 29.2045 6.30051 27.1214 4.16468Z" fill="white"/>
<path d="M44.2349 38.1379C46.206 38.1379 47.8039 36.54 47.8039 34.5689C47.8039 32.5979 46.206 31 44.2349 31C42.2639 31 40.666 32.5979 40.666 34.5689C40.666 36.54 42.2639 38.1379 44.2349 38.1379Z" stroke="white" stroke-width="2"/>
<path d="M47.8037 39.5664H48.0547C49.1346 39.5664 50.0455 40.3706 50.1795 41.4422L50.4582 43.672C50.5647 44.5241 49.9003 45.2767 49.0417 45.2767H39.4278C38.5691 45.2767 37.9047 44.5241 38.0112 43.672L38.29 41.4422C38.4239 40.3706 39.3349 39.5664 40.4148 39.5664H40.6658" stroke="white" stroke-width="2" stroke-linecap="round" stroke-linejoin="round"/>
</svg>
