<svg width="52" height="46" viewBox="0 0 52 46" fill="none" xmlns="http://www.w3.org/2000/svg">
<path d="M51.9388 30.2881C51.8462 30.111 51.6628 30 51.463 30H47.1581C46.9821 30 46.8173 30.0862 46.717 30.2308L42.5723 36.2022H41.682C41.7134 36.134 41.7506 36.0676 41.7944 36.0044L44.0424 32.7656L42.283 30.2308C42.1827 30.0862 42.0179 30 41.8419 30H37.537C37.3372 30 37.1538 30.111 37.0612 30.2881C36.9685 30.4651 36.9819 30.679 37.0959 30.8432L40.8432 36.2421C40.6472 36.3222 40.509 36.5145 40.509 36.7392C40.509 37.0358 40.7494 37.2762 41.046 37.2762H41.6854C42.477 36.7023 43.4496 36.3633 44.5 36.3633C45.5504 36.3633 46.523 36.7023 47.3146 37.2762H47.9541C48.2506 37.2762 48.4911 37.0358 48.4911 36.7392C48.4911 36.5145 48.3529 36.3221 48.1568 36.2421L51.9041 30.8432C52.0181 30.679 52.0315 30.4651 51.9388 30.2881Z" fill="white"/>
<path d="M44.4994 39.3301C43.4852 39.3301 42.6602 40.1552 42.6602 41.1693C42.6602 42.1834 43.4852 43.0085 44.4994 43.0085C45.5135 43.0085 46.3385 42.1834 46.3385 41.1693C46.3385 40.1552 45.5135 39.3301 44.4994 39.3301Z" fill="white"/>
<path d="M44.4996 37.1152C42.2641 37.1152 40.4453 38.9339 40.4453 41.1695C40.4453 43.4051 42.2641 45.2238 44.4996 45.2238C46.7351 45.2238 48.5539 43.405 48.5539 41.1695C48.5539 38.9339 46.7351 37.1152 44.4996 37.1152ZM44.4996 43.7605C43.0709 43.7605 41.9086 42.5982 41.9086 41.1695C41.9086 39.7408 43.0709 38.5785 44.4996 38.5785C45.9283 38.5785 47.0906 39.7408 47.0906 41.1695C47.0906 42.5982 45.9283 43.7605 44.4996 43.7605Z" fill="white"/>
<path d="M2.06033 33.1602C0.683908 33.4239 -0.217886 34.7528 0.0457965 36.1293C0.277837 37.3422 1.34311 38.186 2.53496 38.186C2.69317 38.186 2.85665 38.1702 3.01486 38.1386L13.4567 36.1346C14.0526 36.0186 14.5852 35.6969 14.9649 35.2222L19.4475 29.5689L17.9499 28.8042C16.8424 28.2452 16.0724 27.2327 15.8087 26.0039L11.5793 31.3356L2.06033 33.1602Z" fill="white"/>
<path d="M39.2498 11.1168C42.3197 11.1168 44.8083 8.62825 44.8083 5.55842C44.8083 2.48859 42.3197 0 39.2498 0C36.18 0 33.6914 2.48859 33.6914 5.55842C33.6914 8.62825 36.18 11.1168 39.2498 11.1168Z" fill="white"/>
<path d="M27.1214 4.16468C26.536 3.56349 25.9929 3.32617 25.3969 3.32617C25.1807 3.32617 24.9645 3.35781 24.7324 3.41055L15.1924 5.67294C13.874 5.98409 13.0619 7.30777 13.373 8.62091C13.642 9.74947 14.644 10.5089 15.7567 10.5089C15.9466 10.5089 16.1364 10.4878 16.3263 10.4403L24.453 8.51544C24.9804 9.10081 27.6225 11.9644 28.1024 12.4707C24.7431 16.0673 21.3837 19.6587 18.0244 23.2553C17.9716 23.3133 17.9242 23.3713 17.8767 23.4293C16.8958 24.6792 17.1965 26.641 18.6731 27.3845L20.4608 28.2969L28.9725 32.6424L23.625 41.307C22.892 42.4989 23.2612 44.0598 24.453 44.7981C24.8696 45.0565 25.3284 45.1778 25.7819 45.1778C26.631 45.1778 27.4642 44.7507 27.9441 43.9754L34.7366 32.9693C35.111 32.3629 35.2112 31.6298 35.0161 30.9495C34.8209 30.264 34.3516 29.6944 33.7135 29.3727L26.7364 25.8235L34.0721 17.9764L39.6095 22.6699C40.0682 23.0601 40.6325 23.25 41.1916 23.25C41.7927 23.25 42.3939 23.0285 42.8633 22.5961L49.218 16.6738C50.2095 15.7509 50.2675 14.2004 49.3446 13.209C48.8594 12.6922 48.2055 12.4285 47.5515 12.4285C46.9556 12.4285 46.3544 12.6447 45.885 13.0824L41.1282 17.507C41.1229 17.5123 29.2045 6.30051 27.1214 4.16468Z" fill="white"/>
</svg>
