<svg width="50" height="47" viewBox="0 0 50 47" fill="none" xmlns="http://www.w3.org/2000/svg">
<path d="M2.03343 32.7269C0.674978 32.9871 -0.215041 34.2987 0.0451985 35.6572C0.274209 36.8544 1.32558 37.6871 2.50186 37.6871C2.658 37.6871 2.81935 37.6714 2.97549 37.6403L13.281 35.6625C13.8691 35.5479 14.3948 35.2305 14.7695 34.762L19.1936 29.1825L17.7155 28.4278C16.6225 27.8761 15.8625 26.8768 15.6023 25.6641L11.4281 30.9261L2.03343 32.7269Z" fill="white"/>
<path d="M38.7378 10.9717C41.7675 10.9717 44.2236 8.51559 44.2236 5.48584C44.2236 2.4561 41.7675 0 38.7378 0C35.7081 0 33.252 2.4561 33.252 5.48584C33.252 8.51559 35.7081 10.9717 38.7378 10.9717Z" fill="white"/>
<path d="M26.7671 4.11076C26.1894 3.51742 25.6534 3.2832 25.0652 3.2832C24.8518 3.2832 24.6384 3.31443 24.4094 3.36648L14.994 5.59933C13.6928 5.90641 12.8912 7.21282 13.1983 8.50881C13.4638 9.62263 14.4527 10.3721 15.5509 10.3721C15.7383 10.3721 15.9256 10.3513 16.1131 10.3045L24.1336 8.40471C24.6541 8.98244 27.2617 11.8086 27.7353 12.3083C24.4199 15.858 21.1044 19.4024 17.7889 22.9521C17.7369 23.0094 17.6901 23.0666 17.6432 23.1238C16.6751 24.3574 16.9718 26.2936 18.4292 27.0274L20.1936 27.9279L28.5941 32.2166L23.3164 40.7681C22.593 41.9444 22.9573 43.485 24.1336 44.2136C24.5448 44.4687 24.9976 44.5884 25.4452 44.5884C26.2832 44.5884 27.1055 44.1668 27.5791 43.4017L34.2829 32.5393C34.6524 31.9407 34.7513 31.2173 34.5588 30.5459C34.3662 29.8692 33.903 29.3071 33.2732 28.9896L26.3872 25.4868L33.6272 17.7421L39.0922 22.3744C39.5449 22.7595 40.1019 22.9469 40.6536 22.9469C41.2469 22.9469 41.8403 22.7283 42.3035 22.3015L48.5752 16.4565C49.5538 15.5457 49.611 14.0155 48.7002 13.037C48.2213 12.5269 47.5759 12.2667 46.9305 12.2667C46.3424 12.2667 45.749 12.4801 45.2858 12.9121L40.5911 17.2789C40.5859 17.2841 28.823 6.2187 26.7671 4.11076Z" fill="white"/>
<path d="M40.0922 35.563H46.2019C46.2052 35.563 46.2052 35.563 46.2084 35.563C46.5557 35.563 46.8386 35.3347 46.8386 35.0485C46.8386 35.0003 46.3852 32.3892 46.3852 32.3892C46.3434 32.1351 46.0765 31.9454 45.7614 31.9454L43.7773 31.9486V31.5145C43.7773 31.2315 43.4943 31 43.1471 31C42.7998 31 42.5168 31.2283 42.5168 31.5145V31.9518L40.5295 31.9551C40.2144 31.9551 39.9507 32.1448 39.9057 32.3988L39.4651 34.981C39.4265 35.4408 39.8992 35.563 40.0922 35.563Z" fill="white"/>
<path d="M48.66 33.1816H47.7982C47.7982 33.1816 48.0973 34.902 48.0973 35.0467C48.0973 36.0243 47.2483 36.8218 46.2065 36.8218H40.0903C39.46 36.8346 38.0547 36.3491 38.222 34.767L38.4921 33.1849H37.6303C37.283 33.1849 37 33.4678 37 33.8151V46.1279C37 46.4752 37.283 46.7582 37.6303 46.7582H48.66C49.0073 46.7582 49.2903 46.4752 49.2903 46.1279V33.8119C49.2903 33.4646 49.0073 33.1816 48.66 33.1816ZM46.2 43.475H40.0903C39.743 43.475 39.46 43.192 39.46 42.8447C39.46 42.4974 39.743 42.2144 40.0903 42.2144H46.2C46.5473 42.2144 46.8303 42.4974 46.8303 42.8447C46.8303 43.192 46.5505 43.475 46.2 43.475ZM46.2 39.9281H40.0903C39.743 39.9281 39.46 39.6451 39.46 39.2978C39.46 38.9505 39.743 38.6676 40.0903 38.6676H46.2C46.5473 38.6676 46.8303 38.9505 46.8303 39.2978C46.8303 39.6451 46.5505 39.9281 46.2 39.9281Z" fill="white"/>
</svg>
