<svg width="58" height="54" viewBox="0 0 58 54" fill="none" xmlns="http://www.w3.org/2000/svg">
<g filter="url(#filter0_d_46_1160)">
<path d="M6.06033 33.1602C4.68391 33.4239 3.78211 34.7528 4.0458 36.1293C4.27784 37.3422 5.34311 38.186 6.53496 38.186C6.69317 38.186 6.85665 38.1702 7.01486 38.1386L17.4567 36.1346C18.0526 36.0186 18.5852 35.6969 18.9649 35.2222L23.4475 29.5689L21.9499 28.8042C20.8424 28.2452 20.0724 27.2327 19.8087 26.0039L15.5793 31.3356L6.06033 33.1602Z" fill="white"/>
<path d="M43.2498 11.1168C46.3197 11.1168 48.8083 8.62825 48.8083 5.55842C48.8083 2.48859 46.3197 0 43.2498 0C40.18 0 37.6914 2.48859 37.6914 5.55842C37.6914 8.62825 40.18 11.1168 43.2498 11.1168Z" fill="white"/>
<path d="M31.1214 4.16468C30.536 3.56349 29.9929 3.32617 29.3969 3.32617C29.1807 3.32617 28.9645 3.35781 28.7324 3.41055L19.1924 5.67294C17.874 5.98409 17.0619 7.30777 17.373 8.62091C17.642 9.74947 18.644 10.5089 19.7567 10.5089C19.9466 10.5089 20.1364 10.4878 20.3263 10.4403L28.453 8.51544C28.9804 9.10081 31.6225 11.9644 32.1024 12.4707C28.7431 16.0673 25.3837 19.6587 22.0244 23.2553C21.9716 23.3133 21.9242 23.3713 21.8767 23.4293C20.8958 24.6792 21.1965 26.641 22.6731 27.3845L24.4608 28.2969L32.9725 32.6424L27.625 41.307C26.892 42.4989 27.2612 44.0598 28.453 44.7981C28.8696 45.0565 29.3284 45.1778 29.7819 45.1778C30.631 45.1778 31.4642 44.7507 31.9441 43.9754L38.7366 32.9693C39.111 32.3629 39.2112 31.6298 39.0161 30.9495C38.8209 30.264 38.3516 29.6944 37.7135 29.3727L30.7364 25.8235L38.0721 17.9764L43.6095 22.6699C44.0682 23.0601 44.6325 23.25 45.1916 23.25C45.7927 23.25 46.3939 23.0285 46.8633 22.5961L53.218 16.6738C54.2095 15.7509 54.2675 14.2004 53.3446 13.209C52.8594 12.6922 52.2055 12.4285 51.5515 12.4285C50.9556 12.4285 50.3544 12.6447 49.885 13.0824L45.1282 17.507C45.1229 17.5123 33.2045 6.30051 31.1214 4.16468Z" fill="white"/>
<path d="M53.6407 32.3756C53.6407 31.8529 53.217 31.4292 52.6943 31.4292H51.094V30.597C51.094 30.3838 50.921 30.2109 50.7079 30.2109H49.874C49.6617 30.2109 49.4874 30.3838 49.4874 30.597V31.4296H44.1733V30.597C44.1733 30.3838 44.0004 30.2109 43.7872 30.2109H43.0089C42.7957 30.2109 42.6228 30.3838 42.6228 30.597V31.4296H40.9112C40.3886 31.4296 39.9648 31.8533 39.9648 32.376V35.7484H40.4634V43.0801C40.4634 43.618 40.899 44.0532 41.4365 44.0532H52.1148C52.6527 44.0532 53.0879 43.618 53.0879 43.0801V35.7479H53.6425L53.6407 32.3756ZM51.5369 41.474C51.5369 42.012 51.1018 42.4471 50.5639 42.4471H43.0422C42.5046 42.4471 42.0691 42.012 42.0691 41.474V35.7479H51.5365V41.474H51.5369Z" fill="white"/>
<path d="M44.9485 36.8008H43.3984V38.4069H44.9485V36.8008Z" fill="white"/>
<path d="M47.6067 36.8008H46.0566V38.4069H47.6067V36.8008Z" fill="white"/>
<path d="M50.2614 36.8008H48.7109V38.4069H50.2614V36.8008Z" fill="white"/>
<path d="M44.9485 39.623H43.3984V41.2287H44.9485V39.623Z" fill="white"/>
<path d="M47.6067 39.623H46.0566V41.2287H47.6067V39.623Z" fill="white"/>
<path d="M50.2614 39.623H48.7109V41.2287H50.2614V39.623Z" fill="white"/>
</g>
<defs>
<filter id="filter0_d_46_1160" x="0" y="0" width="58" height="53.1777" filterUnits="userSpaceOnUse" color-interpolation-filters="sRGB">
<feFlood flood-opacity="0" result="BackgroundImageFix"/>
<feColorMatrix in="SourceAlpha" type="matrix" values="0 0 0 0 0 0 0 0 0 0 0 0 0 0 0 0 0 0 127 0" result="hardAlpha"/>
<feOffset dy="4"/>
<feGaussianBlur stdDeviation="2"/>
<feComposite in2="hardAlpha" operator="out"/>
<feColorMatrix type="matrix" values="0 0 0 0 0 0 0 0 0 0 0 0 0 0 0 0 0 0 0.25 0"/>
<feBlend mode="normal" in2="BackgroundImageFix" result="effect1_dropShadow_46_1160"/>
<feBlend mode="normal" in="SourceGraphic" in2="effect1_dropShadow_46_1160" result="shape"/>
</filter>
</defs>
</svg>
