<svg width="50" height="50" viewBox="0 0 50 50" fill="none" xmlns="http://www.w3.org/2000/svg">
<path d="M33.1095 37.5C33.1095 38.0752 32.6431 38.5417 32.0678 38.5417H14.86C14.2847 38.5417 13.8183 38.0752 13.8183 37.5C13.8183 36.9248 14.2847 36.4583 14.86 36.4583H32.0678C32.6431 36.4583 33.1095 36.9248 33.1095 37.5ZM33.3702 19.7917C33.3702 25.5355 28.6974 30.2083 22.9539 30.2083H22.9312C17.1876 30.2083 12.5148 25.5355 12.5148 19.7917C12.5148 14.0478 17.1875 9.375 22.9312 9.375H22.9539C28.6974 9.375 33.3702 14.0478 33.3702 19.7917ZM14.6628 18.75H18.7722V13.5417C18.7722 13.1811 18.8182 12.8311 18.9047 12.4973C16.6276 13.7594 15.0001 16.0572 14.6628 18.75ZM18.9047 27.086C18.8181 26.7522 18.7722 26.4022 18.7722 26.0417V20.8333H14.6628C15.0001 23.5261 16.6277 25.824 18.9047 27.086ZM25.0295 20.8333H20.8554V26.0417C20.8554 27.1904 21.79 28.125 22.9387 28.125C24.0949 28.125 25.0295 27.1904 25.0295 26.0417V20.8333ZM25.0295 13.5417C25.0295 12.3929 24.095 11.4583 22.9463 11.4583C21.79 11.4583 20.8554 12.3929 20.8554 13.5417V18.75H25.0295V13.5417ZM31.2221 20.8333H27.1127V26.0417C27.1127 26.4022 27.0667 26.7522 26.9802 27.086C29.2573 25.824 30.8848 23.5261 31.2221 20.8333ZM31.2221 18.75C30.8848 16.0572 29.2572 13.7594 26.9802 12.4973C27.0668 12.8311 27.1127 13.1811 27.1127 13.5417V18.75H31.2221ZM49.6805 14.6108L39.6275 38.872V44.7917C39.6275 47.6635 37.2912 50 34.4193 50H3.1249C1.40188 50 0 48.5981 0 46.875V3.125C0 1.40188 1.40188 0 3.1249 0H34.4194C37.2913 0 39.6276 2.33646 39.6276 5.20833V5.94479L47.4219 9.16687C48.4512 9.59229 49.253 10.3929 49.6797 11.421C50.1065 12.4494 50.1068 13.5823 49.6805 14.6108ZM6.2574 2.08333H3.1249C2.55052 2.08333 2.08323 2.55062 2.08323 3.125V46.875C2.08323 47.4494 2.55052 47.9167 3.1249 47.9167H6.2574V2.08333ZM37.5443 5.20833C37.5443 3.48521 36.1424 2.08333 34.4194 2.08333H8.34063V47.9167H34.4194C36.1425 47.9167 37.5443 46.5148 37.5443 44.7917V15.8167C37.5275 15.7107 37.527 15.6017 37.5443 15.4929V6.66875C37.5438 6.65021 37.5438 6.63187 37.5443 6.61323V5.20833ZM47.7555 12.2196C47.5422 11.7054 47.1411 11.3051 46.6259 11.0922L39.6275 8.19927V14.9636L41.3403 15.6718C41.872 15.8915 42.1248 16.5006 41.905 17.0324C41.6852 17.5641 41.076 17.8167 40.5444 17.5971L39.6275 17.218V33.4299L45.3627 19.589L44.2548 19.1309C43.7231 18.9112 43.4703 18.302 43.6901 17.7703C43.91 17.2386 44.519 16.9857 45.0507 17.2056L46.1604 17.6643L47.7561 13.8133C47.969 13.2994 47.9688 12.7333 47.7555 12.2196Z" fill="white"/>
</svg>
