<svg width="50" height="50" viewBox="0 0 50 50" fill="none" xmlns="http://www.w3.org/2000/svg">
<path d="M49.3823 10.4613C48.4391 9.51825 40.4734 1.5524 39.5387 0.617727C38.7151 -0.205909 37.3797 -0.205909 36.5561 0.617727C35.7324 1.44136 35.7324 2.77672 36.5561 3.60036L37.7522 4.79645L32.0004 10.5482C29.5658 8.11366 29.0696 7.61746 27.0129 5.56072C26.1893 4.73708 24.8539 4.73708 24.0302 5.56072C23.2066 6.38435 23.2066 7.71971 24.0302 8.54334L26.3302 10.8434L6.94109 30.2325C6.11746 31.0561 6.11746 32.3915 6.94109 33.2151L10.3717 36.6457L0.617727 46.3997C-0.205909 47.2233 -0.205909 48.5586 0.617727 49.3823C1.44127 50.2059 2.77672 50.2061 3.60036 49.3823L13.3543 39.6283L16.7849 43.0589C17.6084 43.8825 18.9439 43.8825 19.7675 43.0589L39.1568 23.6696L41.4569 25.9696C42.2804 26.7932 43.6158 26.7934 44.4395 25.9696C45.2631 25.146 45.2631 23.8106 44.4395 22.987C42.3834 20.9309 41.8856 20.433 39.452 17.9994L45.2037 12.2478L46.3998 13.4439C47.2234 14.2675 48.5588 14.2677 49.3825 13.4439C50.2059 12.6203 50.2059 11.285 49.3823 10.4613ZM18.2761 38.585L11.4151 31.7239L14.1999 28.9391L15.9895 30.7287C16.813 31.5522 18.1485 31.5523 18.9721 30.7287C19.7957 29.9051 19.7957 28.5697 18.9721 27.7461L17.1825 25.9565L18.8727 24.2663L20.6622 26.0558C21.4858 26.8795 22.8212 26.8797 23.6449 26.0558C24.4685 25.2322 24.4685 23.8968 23.6449 23.0732L21.8553 21.2836L23.5455 19.5935L25.335 21.383C26.1585 22.2067 27.494 22.2069 28.3176 21.383C29.1413 20.5594 29.1413 19.2241 28.3176 18.4004L26.5281 16.6109L29.3131 13.8259C30.0024 14.5152 35.4851 19.998 36.1741 20.6869L18.2761 38.585ZM36.4692 15.0169L34.9831 13.5308L40.7348 7.77908L42.2209 9.26522L36.4692 15.0169Z" fill="white"/>
<path fill-rule="evenodd" clip-rule="evenodd" d="M38.2606 30.1367C38.0211 30.1367 37.7915 30.2318 37.6221 30.4012C37.4528 30.5705 37.3577 30.8001 37.3577 31.0396C37.3577 31.279 37.4528 31.5087 37.6221 31.678C37.7915 31.8473 38.0211 31.9425 38.2606 31.9425H39.1634V32.9013C37.8777 33.0614 36.6592 33.5662 35.6368 34.3621L34.5714 33.2967L35.2874 32.5808C35.4519 32.4105 35.5429 32.1824 35.5408 31.9457C35.5388 31.709 35.4438 31.4825 35.2764 31.3151C35.109 31.1477 34.8826 31.0528 34.6458 31.0507C34.4091 31.0487 34.1811 31.1397 34.0108 31.3041L31.3022 34.0127C31.1377 34.183 31.0467 34.4111 31.0488 34.6478C31.0508 34.8845 31.1458 35.111 31.3132 35.2784C31.4806 35.4458 31.707 35.5407 31.9437 35.5428C32.1805 35.5448 32.4085 35.4538 32.5788 35.2894L33.2948 34.5734L34.3602 35.6388C33.5642 36.6611 33.0595 37.8797 32.8993 39.1654H31.9405V38.2625C31.9405 38.0231 31.8454 37.7934 31.6761 37.6241C31.5067 37.4548 31.2771 37.3596 31.0376 37.3596C30.7982 37.3596 30.5685 37.4548 30.3992 37.6241C30.2299 37.7934 30.1348 38.0231 30.1348 38.2625V41.874C30.1348 42.1134 30.2299 42.3431 30.3992 42.5124C30.5685 42.6817 30.7982 42.7768 31.0376 42.7768C31.2771 42.7768 31.5067 42.6817 31.6761 42.5124C31.8454 42.3431 31.9405 42.1134 31.9405 41.874V40.9711H32.8993C33.0637 42.2893 33.5846 43.4991 34.3602 44.4977L33.2948 45.5631L32.5788 44.8471C32.4085 44.6826 32.1805 44.5916 31.9437 44.5937C31.707 44.5958 31.4806 44.6907 31.3132 44.8581C31.1458 45.0255 31.0508 45.252 31.0488 45.4887C31.0467 45.7254 31.1377 45.9535 31.3022 46.1238L34.0108 48.8324C34.1811 48.9968 34.4091 49.0878 34.6458 49.0858C34.8826 49.0837 35.109 48.9888 35.2764 48.8214C35.4438 48.654 35.5388 48.4275 35.5408 48.1908C35.5429 47.9541 35.4519 47.726 35.2874 47.5557L34.5714 46.8397L35.6368 45.7744C36.6593 46.5701 37.8778 47.0748 39.1634 47.2352V48.194H38.2606C38.0211 48.194 37.7915 48.2892 37.6221 48.4585C37.4528 48.6278 37.3577 48.8575 37.3577 49.0969C37.3577 49.3364 37.4528 49.566 37.6221 49.7353C37.7915 49.9046 38.0211 49.9998 38.2606 49.9998H41.872C42.1115 49.9998 42.3411 49.9046 42.5104 49.7353C42.6798 49.566 42.7749 49.3364 42.7749 49.0969C42.7749 48.8575 42.6798 48.6278 42.5104 48.4585C42.3411 48.2892 42.1115 48.194 41.872 48.194H40.9692V47.2352C42.2548 47.0748 43.4733 46.5701 44.4958 45.7744L45.5611 46.8397L44.8452 47.5557C44.6807 47.726 44.5897 47.9541 44.5918 48.1908C44.5938 48.4275 44.6888 48.654 44.8562 48.8214C45.0236 48.9888 45.25 49.0837 45.4867 49.0858C45.7235 49.0878 45.9515 48.9968 46.1218 48.8324L48.8304 46.1238C48.9949 45.9535 49.0859 45.7254 49.0838 45.4887C49.0818 45.252 48.9868 45.0255 48.8194 44.8581C48.652 44.6907 48.4256 44.5958 48.1888 44.5937C47.9521 44.5916 47.724 44.6826 47.5538 44.8471L46.8378 45.5631L45.7724 44.4977C46.5681 43.4752 47.0729 42.2568 47.2332 40.9711H48.1921V41.874C48.1921 42.1134 48.2872 42.3431 48.4565 42.5124C48.6258 42.6817 48.8555 42.7768 49.095 42.7768C49.3344 42.7768 49.5641 42.6817 49.7334 42.5124C49.9027 42.3431 49.9978 42.1134 49.9978 41.874V38.2625C49.9978 38.0231 49.9027 37.7934 49.7334 37.6241C49.5641 37.4548 49.3344 37.3596 49.095 37.3596C48.8555 37.3596 48.6258 37.4548 48.4565 37.6241C48.2872 37.7934 48.1921 38.0231 48.1921 38.2625V39.1654H47.2332C47.0729 37.8797 46.5681 36.6613 45.7724 35.6388L46.8378 34.5734L47.5538 35.2894C47.637 35.3756 47.7367 35.4444 47.8468 35.4917C47.957 35.539 48.0755 35.5639 48.1953 35.565C48.3152 35.566 48.4341 35.5432 48.5451 35.4978C48.656 35.4524 48.7568 35.3853 48.8416 35.3006C48.9264 35.2158 48.9934 35.115 49.0388 35.004C49.0842 34.8931 49.1071 34.7742 49.106 34.6543C49.105 34.5344 49.0801 34.4159 49.0327 34.3058C48.9854 34.1956 48.9166 34.096 48.8304 34.0127L46.1218 31.3041C46.0385 31.2179 45.9389 31.1491 45.8287 31.1018C45.7186 31.0545 45.6001 31.0296 45.4802 31.0285C45.3604 31.0275 45.2415 31.0503 45.1305 31.0957C45.0196 31.1411 44.9187 31.2082 44.834 31.2929C44.7492 31.3777 44.6822 31.4785 44.6368 31.5895C44.5914 31.7004 44.5685 31.8193 44.5696 31.9392C44.5706 32.0591 44.5955 32.1776 44.6428 32.2877C44.6901 32.3979 44.7589 32.4975 44.8452 32.5808L45.5611 33.2967L44.4958 34.3621C43.4733 33.5664 42.2548 33.0617 40.9692 32.9013V31.9425H41.872C42.1115 31.9425 42.3411 31.8473 42.5104 31.678C42.6798 31.5087 42.7749 31.279 42.7749 31.0396C42.7749 30.8001 42.6798 30.5705 42.5104 30.4012C42.3411 30.2318 42.1115 30.1367 41.872 30.1367H38.2606ZM40.9692 41.874C40.9692 41.6345 41.0643 41.4049 41.2336 41.2356C41.4029 41.0662 41.6326 40.9711 41.872 40.9711H41.8729C42.1124 40.9711 42.342 41.0662 42.5113 41.2356C42.6807 41.4049 42.7758 41.6345 42.7758 41.874C42.7758 42.1134 42.6807 42.3431 42.5113 42.5124C42.342 42.6817 42.1124 42.7768 41.8729 42.7768H41.872C41.6326 42.7768 41.4029 42.6817 41.2336 42.5124C41.0643 42.3431 40.9692 42.1134 40.9692 41.874ZM38.2606 38.7139C38.2606 38.5942 38.3081 38.4794 38.3928 38.3947C38.4774 38.3101 38.5923 38.2625 38.712 38.2625C38.8317 38.2625 38.9465 38.3101 39.0312 38.3947C39.1159 38.4794 39.1634 38.5942 39.1634 38.7139C39.1634 38.8337 39.1159 38.9485 39.0312 39.0332C38.9465 39.1178 38.8317 39.1654 38.712 39.1654C38.5923 39.1654 38.4774 39.1178 38.3928 39.0332C38.3081 38.9485 38.2606 38.8337 38.2606 38.7139ZM38.712 36.4568C38.1134 36.4568 37.5392 36.6946 37.1159 37.1179C36.6926 37.5412 36.4548 38.1153 36.4548 38.7139C36.4548 39.3126 36.6926 39.8867 37.1159 40.31C37.5392 40.7333 38.1134 40.9711 38.712 40.9711C39.3106 40.9711 39.8847 40.7333 40.308 40.31C40.7313 39.8867 40.9692 39.3126 40.9692 38.7139C40.9692 38.1153 40.7313 37.5412 40.308 37.1179C39.8847 36.6946 39.3106 36.4568 38.712 36.4568Z" fill="white"/>
</svg>
