<svg width="216" height="260" viewBox="0 0 216 260" fill="none" xmlns="http://www.w3.org/2000/svg">
<path d="M46.9882 254L54.9132 236.5H57.3882L65.3382 254H62.7132L55.6382 237.9H56.6382L49.5632 254H46.9882ZM50.3632 249.625L51.0382 247.625H60.8882L61.6132 249.625H50.3632ZM72.0267 254.15C70.6933 254.15 69.66 253.792 68.9267 253.075C68.1933 252.358 67.8267 251.333 67.8267 250V237.85H70.2267V249.9C70.2267 250.617 70.4017 251.167 70.7517 251.55C71.1183 251.933 71.635 252.125 72.3017 252.125C73.0517 252.125 73.6767 251.917 74.1767 251.5L74.9267 253.225C74.56 253.542 74.1183 253.775 73.6017 253.925C73.1017 254.075 72.5767 254.15 72.0267 254.15ZM65.5767 242.725V240.75H74.0267V242.725H65.5767ZM77.8282 254V235.45H80.2282V254H77.8282ZM90.7106 254.15C89.294 254.15 88.044 253.858 86.9606 253.275C85.894 252.692 85.0606 251.892 84.4606 250.875C83.8773 249.858 83.5856 248.692 83.5856 247.375C83.5856 246.058 83.869 244.892 84.4356 243.875C85.019 242.858 85.8106 242.067 86.8106 241.5C87.8273 240.917 88.969 240.625 90.2356 240.625C91.519 240.625 92.6523 240.908 93.6356 241.475C94.619 242.042 95.3856 242.842 95.9356 243.875C96.5023 244.892 96.7856 246.083 96.7856 247.45C96.7856 247.55 96.7773 247.667 96.7606 247.8C96.7606 247.933 96.7523 248.058 96.7356 248.175H85.4606V246.45H95.4856L94.5106 247.05C94.5273 246.2 94.3523 245.442 93.9856 244.775C93.619 244.108 93.1106 243.592 92.4606 243.225C91.8273 242.842 91.0856 242.65 90.2356 242.65C89.4023 242.65 88.6606 242.842 88.0106 243.225C87.3606 243.592 86.8523 244.117 86.4856 244.8C86.119 245.467 85.9356 246.233 85.9356 247.1V247.5C85.9356 248.383 86.1356 249.175 86.5356 249.875C86.9523 250.558 87.5273 251.092 88.2606 251.475C88.994 251.858 89.8356 252.05 90.7856 252.05C91.569 252.05 92.2773 251.917 92.9106 251.65C93.5606 251.383 94.1273 250.983 94.6106 250.45L95.9356 252C95.3356 252.7 94.5856 253.233 93.6856 253.6C92.8023 253.967 91.8106 254.15 90.7106 254.15ZM104.668 254.15C103.335 254.15 102.302 253.792 101.568 253.075C100.835 252.358 100.468 251.333 100.468 250V237.85H102.868V249.9C102.868 250.617 103.043 251.167 103.393 251.55C103.76 251.933 104.277 252.125 104.943 252.125C105.693 252.125 106.318 251.917 106.818 251.5L107.568 253.225C107.202 253.542 106.76 253.775 106.243 253.925C105.743 254.075 105.218 254.15 104.668 254.15ZM98.2183 242.725V240.75H106.668V242.725H98.2183ZM110.47 254V240.75H112.87V254H110.47ZM111.67 238.2C111.203 238.2 110.811 238.05 110.495 237.75C110.195 237.45 110.045 237.083 110.045 236.65C110.045 236.2 110.195 235.825 110.495 235.525C110.811 235.225 111.203 235.075 111.67 235.075C112.136 235.075 112.52 235.225 112.82 235.525C113.136 235.808 113.295 236.167 113.295 236.6C113.295 237.05 113.145 237.433 112.845 237.75C112.545 238.05 112.153 238.2 111.67 238.2ZM121.252 254.15C120.152 254.15 119.102 254 118.102 253.7C117.119 253.4 116.344 253.033 115.777 252.6L116.777 250.7C117.344 251.083 118.044 251.408 118.877 251.675C119.711 251.942 120.561 252.075 121.427 252.075C122.544 252.075 123.344 251.917 123.827 251.6C124.327 251.283 124.577 250.842 124.577 250.275C124.577 249.858 124.427 249.533 124.127 249.3C123.827 249.067 123.427 248.892 122.927 248.775C122.444 248.658 121.902 248.558 121.302 248.475C120.702 248.375 120.102 248.258 119.502 248.125C118.902 247.975 118.352 247.775 117.852 247.525C117.352 247.258 116.952 246.9 116.652 246.45C116.352 245.983 116.202 245.367 116.202 244.6C116.202 243.8 116.427 243.1 116.877 242.5C117.327 241.9 117.961 241.442 118.777 241.125C119.611 240.792 120.594 240.625 121.727 240.625C122.594 240.625 123.469 240.733 124.352 240.95C125.252 241.15 125.986 241.442 126.552 241.825L125.527 243.725C124.927 243.325 124.302 243.05 123.652 242.9C123.002 242.75 122.352 242.675 121.702 242.675C120.652 242.675 119.869 242.85 119.352 243.2C118.836 243.533 118.577 243.967 118.577 244.5C118.577 244.95 118.727 245.3 119.027 245.55C119.344 245.783 119.744 245.967 120.227 246.1C120.727 246.233 121.277 246.35 121.877 246.45C122.477 246.533 123.077 246.65 123.677 246.8C124.277 246.933 124.819 247.125 125.302 247.375C125.802 247.625 126.202 247.975 126.502 248.425C126.819 248.875 126.977 249.475 126.977 250.225C126.977 251.025 126.744 251.717 126.277 252.3C125.811 252.883 125.152 253.342 124.302 253.675C123.452 253.992 122.436 254.15 121.252 254.15ZM146.552 240.625C147.618 240.625 148.56 240.833 149.377 241.25C150.193 241.667 150.827 242.3 151.277 243.15C151.743 244 151.977 245.075 151.977 246.375V254H149.577V246.65C149.577 245.367 149.277 244.4 148.677 243.75C148.077 243.1 147.235 242.775 146.152 242.775C145.352 242.775 144.652 242.942 144.052 243.275C143.452 243.608 142.985 244.1 142.652 244.75C142.335 245.4 142.177 246.208 142.177 247.175V254H139.777V246.65C139.777 245.367 139.477 244.4 138.877 243.75C138.293 243.1 137.452 242.775 136.352 242.775C135.568 242.775 134.877 242.942 134.277 243.275C133.677 243.608 133.21 244.1 132.877 244.75C132.543 245.4 132.377 246.208 132.377 247.175V254H129.977V240.75H132.277V244.275L131.902 243.375C132.318 242.508 132.96 241.833 133.827 241.35C134.693 240.867 135.702 240.625 136.852 240.625C138.118 240.625 139.21 240.942 140.127 241.575C141.043 242.192 141.643 243.133 141.927 244.4L140.952 244C141.352 242.983 142.052 242.167 143.052 241.55C144.052 240.933 145.218 240.625 146.552 240.625ZM162.068 254.15C160.734 254.15 159.551 253.858 158.518 253.275C157.484 252.692 156.668 251.892 156.068 250.875C155.468 249.842 155.168 248.675 155.168 247.375C155.168 246.058 155.468 244.892 156.068 243.875C156.668 242.858 157.484 242.067 158.518 241.5C159.551 240.917 160.734 240.625 162.068 240.625C163.384 240.625 164.559 240.917 165.593 241.5C166.643 242.067 167.459 242.858 168.043 243.875C168.643 244.875 168.943 246.042 168.943 247.375C168.943 248.692 168.643 249.858 168.043 250.875C167.459 251.892 166.643 252.692 165.593 253.275C164.559 253.858 163.384 254.15 162.068 254.15ZM162.068 252.05C162.918 252.05 163.676 251.858 164.343 251.475C165.026 251.092 165.559 250.55 165.943 249.85C166.326 249.133 166.518 248.308 166.518 247.375C166.518 246.425 166.326 245.608 165.943 244.925C165.559 244.225 165.026 243.683 164.343 243.3C163.676 242.917 162.918 242.725 162.068 242.725C161.218 242.725 160.459 242.917 159.793 243.3C159.126 243.683 158.593 244.225 158.193 244.925C157.793 245.608 157.593 246.425 157.593 247.375C157.593 248.308 157.793 249.133 158.193 249.85C158.593 250.55 159.126 251.092 159.793 251.475C160.459 251.858 161.218 252.05 162.068 252.05Z" fill="black"/>
<path d="M215.3 107.9C215.3 167.215 167.215 215.3 107.9 215.3C48.5846 215.3 0.5 167.215 0.5 107.9C0.5 48.5846 48.5846 0.5 107.9 0.5C167.215 0.5 215.3 48.5846 215.3 107.9Z" fill="white" stroke="#693CBA"/>
<path d="M100.102 61.1989C100.102 61.1989 104.702 57.6989 107.202 57.6989C107.202 57.6989 108.402 57.7989 108.702 55.4989L108.302 51.2989C108.302 51.2989 107.202 51.7989 106.802 49.3989C106.802 49.3989 106.102 45.3989 107.702 46.6989L107.302 43.4989C107.302 43.4989 106.502 42.1989 107.702 41.6989C107.702 41.6989 106.902 39.3989 108.502 39.2989C108.502 39.2989 110.302 36.9989 111.302 37.9989C111.302 37.9989 112.602 36.1989 113.502 37.1989C113.502 37.1989 115.902 36.7989 116.702 37.5989C116.802 37.6989 116.902 37.8989 116.902 38.0989C117.002 39.3989 118.202 37.6989 118.202 39.5989C118.202 39.5989 120.602 38.4989 120.502 41.4989C120.502 41.4989 121.802 41.3989 121.302 43.4989L121.202 46.9989C121.202 46.9989 122.002 50.5989 119.902 51.6989C119.902 51.6989 117.902 55.9989 119.902 57.5989C119.902 57.5989 125.002 59.1989 127.602 60.9989C127.602 60.9989 128.802 61.899 129.902 62.299C129.902 62.299 133.802 62.9989 133.402 74.3989C133.402 74.3989 134.202 76.9989 135.202 78.3989C135.202 78.3989 136.302 80.3989 136.102 82.3989C136.102 82.3989 137.902 83.2989 137.402 86.6989C137.402 86.6989 137.302 89.3989 137.402 90.4989C137.402 90.4989 137.702 91.299 136.902 92.299L135.402 94.0989C135.402 94.0989 133.902 95.5989 132.702 94.1989L126.402 88.8989C126.402 88.8989 124.202 93.5989 125.502 101.799C125.502 101.799 127.802 111.899 124.602 123.599C124.602 123.599 123.902 127.799 122.602 132.099C122.602 132.099 125.302 136.099 123.002 138.799C123.002 138.799 123.402 144.599 118.702 147.799C118.702 147.799 113.702 151.799 114.102 143.799C114.102 143.799 111.802 142.299 111.902 136.299C111.902 136.299 111.802 127.799 110.802 125.399L110.302 122.799C110.302 122.799 109.102 124.299 107.302 125.599C107.302 125.599 106.102 127.899 105.402 128.999C105.402 128.999 104.902 134.899 103.202 137.199C103.202 137.199 104.402 147.999 102.502 150.799C102.502 150.799 99.5016 160.099 99.3016 162.799C99.3016 162.799 99.2016 165.199 99.7016 166.999C99.7016 166.999 100.602 168.799 99.8016 169.599C99.8016 169.599 101.402 176.299 99.0016 176.899C99.0016 176.899 98.6016 177.399 96.0016 177.699C96.0016 177.699 91.0016 180.299 90.6016 177.199C90.6016 177.199 89.8016 173.799 92.6016 173.199C92.6016 173.199 92.7016 170.799 93.5016 169.599C93.5016 169.599 93.5016 165.999 94.7016 166.099C94.7016 166.099 93.9016 151.499 93.5016 147.799C93.5016 147.799 91.9016 141.599 94.7016 137.699C94.7016 137.699 95.9016 135.099 96.0016 133.799C96.0016 133.799 95.3016 130.399 96.8016 128.299C96.8016 128.299 97.2016 124.299 96.1016 120.499C96.1016 120.499 93.7016 117.099 95.8016 109.699C95.8016 109.699 95.8016 101.099 98.1016 98.5989C98.1016 98.5989 98.0016 91.6989 99.6016 89.1989L100.302 80.6989C100.302 80.6989 94.1016 88.499 90.9016 90.299C90.9016 90.299 86.9016 93.2989 86.0016 94.5989C86.0016 94.5989 86.3015 96.8989 84.9016 98.0989C84.9016 98.0989 83.4016 99.8989 83.4016 101.699C83.4016 101.699 83.4016 103.599 82.6016 103.299L82.9016 103.999C82.9016 103.999 84.5016 104.299 83.8016 105.099C83.8016 105.099 84.2016 107.299 82.6016 105.999L79.9016 105.599L78.1016 104.099L78.6016 99.3989C78.6016 99.3989 80.8016 94.7989 82.5016 92.6989C82.5016 92.6989 87.8016 85.7989 89.0016 82.9989C89.0016 82.9989 92.1016 76.2989 95.2016 74.8989L95.5016 70.6989C95.8016 70.5989 91.2016 60.8989 100.102 61.1989Z" fill="#693CBA"/>
</svg>
