<svg width="216" height="260" viewBox="0 0 216 260" fill="none" xmlns="http://www.w3.org/2000/svg">
<path d="M215.3 107.9C215.3 167.215 167.215 215.3 107.9 215.3C48.5846 215.3 0.5 167.215 0.5 107.9C0.5 48.5846 48.5846 0.5 107.9 0.5C167.215 0.5 215.3 48.5846 215.3 107.9Z" fill="white" stroke="#693CBA"/>
<path d="M41.9002 72.4994C41.9002 72.4994 46.3001 68.4994 55.8001 70.2994C55.8001 70.2994 70.0002 72.4994 77.9002 68.8994C77.9002 68.8994 82.1001 66.0994 87.3001 67.4994C87.3001 67.4994 96.7002 69.3994 100.6 69.2994C100.6 69.2994 108.6 68.7994 110.4 69.9994C110.4 69.9994 112.2 68.5994 113.6 69.2994C113.6 69.2994 118 68.4994 121.1 69.8994C121.1 69.8994 133.6 75.0994 135 76.6994C135 76.6994 141 79.8994 144.3 80.4994C144.3 80.4994 150.8 81.2994 153.7 84.2994C153.7 84.2994 159.5 90.0994 161 91.0994C161 91.0994 163.3 93.6994 166.2 92.0994C166.2 92.0994 168.3 91.1994 168.5 93.8994C168.5 93.8994 168.3 98.6994 170.1 98.7994C170.1 98.7994 173 98.4994 174.3 99.3994C174.3 99.3994 176.6 101.399 173.7 102.099C173.7 102.099 166.1 102.399 163.3 98.5994C163.3 98.5994 156.3 93.3994 154.1 92.2994C154.1 92.2994 144.7 87.9994 144.2 87.5994C144.2 87.5994 136 86.9994 134.5 85.7994C134.5 85.7994 130.6 85.1994 128.7 85.5994C128.7 85.5994 123.9 84.7994 122.9 84.2994C122.9 84.2994 123.4 86.3994 123.5 87.3994C123.5 87.3994 125.7 93.7994 127.6 94.5994C127.6 94.5994 122.8 96.7994 121.3 96.7994C121.3 96.7994 118.7 101.299 117.3 102.499C117.3 102.499 115.1 109.999 108.4 109.999L105.7 110.299C105.7 110.299 104.3 109.999 104.3 112.599C104.3 112.599 104.2 121.599 104.1 123.699C104.1 123.699 103.6 132.299 102.1 136.699C102.1 136.699 99.8002 144.999 99.5002 145.899C99.5002 145.899 99.6002 147.899 97.0002 148.099C97.0002 148.099 89.6002 148.999 87.7002 147.999C87.7002 147.999 83.9002 147.599 87.7002 146.299C87.7002 146.299 92.3002 144.199 94.9002 144.599C94.9002 144.599 95.8002 145.099 96.5002 143.799L97.7002 136.899C97.7002 136.899 97.0001 140.499 94.8001 139.999C94.8001 139.999 86.0002 141.199 88.6002 139.499L85.1002 139.299C85.1002 139.299 81.3001 138.499 85.3001 137.199C85.3001 137.199 91.1001 136.499 93.3001 136.999C93.3001 136.999 94.0001 137.299 94.8001 135.199C94.8001 135.199 96.9002 121.999 97.9002 118.999C97.9002 118.999 98.4002 115.999 97.5002 112.999C97.5002 112.999 97.4002 110.299 97.6002 109.799C97.6002 109.799 94.9002 109.999 94.0002 111.199C94.0002 111.199 92.2001 113.999 91.3001 112.899C91.3001 112.899 90.1002 112.799 89.9002 112.099C89.9002 112.099 88.3002 112.399 88.5002 111.799L87.2002 111.899C87.2002 111.899 86.6002 111.299 86.6002 110.699L86.2002 109.399C86.2002 109.399 84.3002 108.499 84.0002 107.099L83.1002 104.599C83.1002 104.599 80.9002 101.499 86.1002 97.5994C86.1002 97.5994 86.2002 93.8994 88.7002 94.5994C88.7002 94.5994 91.7002 95.1994 91.4002 97.3994C91.4002 97.3994 94.7002 98.6994 95.4002 100.999C95.4002 100.999 98.5002 96.4994 102.6 95.7994C102.6 95.7994 101.9 93.8994 100 94.0994C100 94.0994 97.7002 93.5994 98.2002 91.1994C98.2002 91.1994 99.0001 85.8994 104.8 84.9994C104.8 84.9994 102.6 81.8994 102.5 80.3994C102.5 80.3994 89.9002 76.0994 87.5002 75.1994C85.1002 74.2994 81.8002 73.9994 80.0002 74.7994C80.0002 74.7994 74.0001 77.8994 64.3001 75.7994L57.7002 73.9994C57.7002 73.9994 54.8002 73.9994 53.9002 75.4994C53.9002 75.4994 52.0002 77.1994 49.5002 75.4994C49.5002 75.4994 46.6002 74.9994 43.7002 75.8994C44.1002 75.9994 38.3002 75.7994 41.9002 72.4994Z" fill="#693CBA"/>
<path d="M76.873 254V236.5H84.723C86.7397 236.5 88.2897 236.908 89.373 237.725C90.4564 238.525 90.998 239.625 90.998 241.025C90.998 241.975 90.7814 242.775 90.348 243.425C89.9314 244.075 89.3647 244.575 88.648 244.925C87.9314 245.275 87.1564 245.45 86.323 245.45L86.773 244.7C87.773 244.7 88.6564 244.875 89.423 245.225C90.1897 245.575 90.798 246.092 91.248 246.775C91.698 247.442 91.923 248.275 91.923 249.275C91.923 250.775 91.3564 251.942 90.223 252.775C89.1064 253.592 87.4397 254 85.223 254H76.873ZM79.373 251.975H85.123C86.5064 251.975 87.5647 251.742 88.298 251.275C89.0314 250.808 89.398 250.075 89.398 249.075C89.398 248.058 89.0314 247.317 88.298 246.85C87.5647 246.383 86.5064 246.15 85.123 246.15H79.148V244.125H84.498C85.7647 244.125 86.748 243.892 87.448 243.425C88.148 242.958 88.498 242.258 88.498 241.325C88.498 240.392 88.148 239.692 87.448 239.225C86.748 238.758 85.7647 238.525 84.498 238.525H79.373V251.975ZM103.669 254V251.2L103.544 250.675V245.9C103.544 244.883 103.244 244.1 102.644 243.55C102.061 242.983 101.177 242.7 99.9939 242.7C99.2106 242.7 98.4439 242.833 97.6939 243.1C96.9439 243.35 96.3106 243.692 95.7939 244.125L94.7939 242.325C95.4773 241.775 96.2939 241.358 97.2439 241.075C98.2106 240.775 99.2189 240.625 100.269 240.625C102.086 240.625 103.486 241.067 104.469 241.95C105.452 242.833 105.944 244.183 105.944 246V254H103.669ZM99.3189 254.15C98.3356 254.15 97.4689 253.983 96.7189 253.65C95.9856 253.317 95.4189 252.858 95.0189 252.275C94.6189 251.675 94.4189 251 94.4189 250.25C94.4189 249.533 94.5856 248.883 94.9189 248.3C95.2689 247.717 95.8273 247.25 96.5939 246.9C97.3773 246.55 98.4273 246.375 99.7439 246.375H103.944V248.1H99.8439C98.6439 248.1 97.8356 248.3 97.4189 248.7C97.0023 249.1 96.7939 249.583 96.7939 250.15C96.7939 250.8 97.0523 251.325 97.5689 251.725C98.0856 252.108 98.8023 252.3 99.7189 252.3C100.619 252.3 101.402 252.1 102.069 251.7C102.752 251.3 103.244 250.717 103.544 249.95L104.019 251.6C103.702 252.383 103.144 253.008 102.344 253.475C101.544 253.925 100.536 254.15 99.3189 254.15ZM110.385 254V235.45H112.785V254H110.385ZM123.268 254.15C121.851 254.15 120.601 253.858 119.518 253.275C118.451 252.692 117.618 251.892 117.018 250.875C116.434 249.858 116.143 248.692 116.143 247.375C116.143 246.058 116.426 244.892 116.993 243.875C117.576 242.858 118.368 242.067 119.368 241.5C120.384 240.917 121.526 240.625 122.793 240.625C124.076 240.625 125.209 240.908 126.193 241.475C127.176 242.042 127.943 242.842 128.493 243.875C129.059 244.892 129.343 246.083 129.343 247.45C129.343 247.55 129.334 247.667 129.318 247.8C129.318 247.933 129.309 248.058 129.293 248.175H118.018V246.45H128.043L127.068 247.05C127.084 246.2 126.909 245.442 126.543 244.775C126.176 244.108 125.668 243.592 125.018 243.225C124.384 242.842 123.643 242.65 122.793 242.65C121.959 242.65 121.218 242.842 120.568 243.225C119.918 243.592 119.409 244.117 119.043 244.8C118.676 245.467 118.493 246.233 118.493 247.1V247.5C118.493 248.383 118.693 249.175 119.093 249.875C119.509 250.558 120.084 251.092 120.818 251.475C121.551 251.858 122.393 252.05 123.343 252.05C124.126 252.05 124.834 251.917 125.468 251.65C126.118 251.383 126.684 250.983 127.168 250.45L128.493 252C127.893 252.7 127.143 253.233 126.243 253.6C125.359 253.967 124.368 254.15 123.268 254.15ZM137.225 254.15C135.892 254.15 134.859 253.792 134.125 253.075C133.392 252.358 133.025 251.333 133.025 250V237.85H135.425V249.9C135.425 250.617 135.6 251.167 135.95 251.55C136.317 251.933 136.834 252.125 137.5 252.125C138.25 252.125 138.875 251.917 139.375 251.5L140.125 253.225C139.759 253.542 139.317 253.775 138.8 253.925C138.3 254.075 137.775 254.15 137.225 254.15ZM130.775 242.725V240.75H139.225V242.725H130.775Z" fill="black"/>
</svg>
