<svg width="216" height="260" viewBox="0 0 216 260" fill="none" xmlns="http://www.w3.org/2000/svg">
<path d="M215.3 107.9C215.3 167.215 167.215 215.3 107.9 215.3C48.5846 215.3 0.5 167.215 0.5 107.9C0.5 48.5846 48.5846 0.5 107.9 0.5C167.215 0.5 215.3 48.5846 215.3 107.9Z" fill="white" stroke="#693CBA"/>
<path d="M46.7217 254V236.5H54.5717C56.5883 236.5 58.1383 236.908 59.2217 237.725C60.305 238.525 60.8467 239.625 60.8467 241.025C60.8467 241.975 60.63 242.775 60.1967 243.425C59.78 244.075 59.2133 244.575 58.4967 244.925C57.78 245.275 57.005 245.45 56.1717 245.45L56.6217 244.7C57.6217 244.7 58.505 244.875 59.2717 245.225C60.0383 245.575 60.6467 246.092 61.0967 246.775C61.5467 247.442 61.7717 248.275 61.7717 249.275C61.7717 250.775 61.205 251.942 60.0717 252.775C58.955 253.592 57.2883 254 55.0717 254H46.7217ZM49.2217 251.975H54.9717C56.355 251.975 57.4133 251.742 58.1467 251.275C58.88 250.808 59.2467 250.075 59.2467 249.075C59.2467 248.058 58.88 247.317 58.1467 246.85C57.4133 246.383 56.355 246.15 54.9717 246.15H48.9967V244.125H54.3467C55.6133 244.125 56.5967 243.892 57.2967 243.425C57.9967 242.958 58.3467 242.258 58.3467 241.325C58.3467 240.392 57.9967 239.692 57.2967 239.225C56.5967 238.758 55.6133 238.525 54.3467 238.525H49.2217V251.975ZM73.5176 254V251.2L73.3926 250.675V245.9C73.3926 244.883 73.0926 244.1 72.4926 243.55C71.9092 242.983 71.0259 242.7 69.8426 242.7C69.0592 242.7 68.2926 242.833 67.5426 243.1C66.7926 243.35 66.1592 243.692 65.6426 244.125L64.6426 242.325C65.3259 241.775 66.1426 241.358 67.0926 241.075C68.0592 240.775 69.0676 240.625 70.1176 240.625C71.9342 240.625 73.3342 241.067 74.3176 241.95C75.3009 242.833 75.7926 244.183 75.7926 246V254H73.5176ZM69.1676 254.15C68.1842 254.15 67.3176 253.983 66.5676 253.65C65.8342 253.317 65.2676 252.858 64.8676 252.275C64.4676 251.675 64.2676 251 64.2676 250.25C64.2676 249.533 64.4342 248.883 64.7676 248.3C65.1176 247.717 65.6759 247.25 66.4426 246.9C67.2259 246.55 68.2759 246.375 69.5926 246.375H73.7926V248.1H69.6926C68.4926 248.1 67.6842 248.3 67.2676 248.7C66.8509 249.1 66.6426 249.583 66.6426 250.15C66.6426 250.8 66.9009 251.325 67.4176 251.725C67.9342 252.108 68.6509 252.3 69.5676 252.3C70.4676 252.3 71.2509 252.1 71.9176 251.7C72.6009 251.3 73.0926 250.717 73.3926 249.95L73.8676 251.6C73.5509 252.383 72.9926 253.008 72.1926 253.475C71.3926 253.925 70.3842 254.15 69.1676 254.15ZM84.034 254.15C82.934 254.15 81.884 254 80.884 253.7C79.9007 253.4 79.1257 253.033 78.559 252.6L79.559 250.7C80.1257 251.083 80.8257 251.408 81.659 251.675C82.4923 251.942 83.3423 252.075 84.209 252.075C85.3257 252.075 86.1257 251.917 86.609 251.6C87.109 251.283 87.359 250.842 87.359 250.275C87.359 249.858 87.209 249.533 86.909 249.3C86.609 249.067 86.209 248.892 85.709 248.775C85.2257 248.658 84.684 248.558 84.084 248.475C83.484 248.375 82.884 248.258 82.284 248.125C81.684 247.975 81.134 247.775 80.634 247.525C80.134 247.258 79.734 246.9 79.434 246.45C79.134 245.983 78.984 245.367 78.984 244.6C78.984 243.8 79.209 243.1 79.659 242.5C80.109 241.9 80.7423 241.442 81.559 241.125C82.3923 240.792 83.3757 240.625 84.509 240.625C85.3757 240.625 86.2507 240.733 87.134 240.95C88.034 241.15 88.7673 241.442 89.334 241.825L88.309 243.725C87.709 243.325 87.084 243.05 86.434 242.9C85.784 242.75 85.134 242.675 84.484 242.675C83.434 242.675 82.6507 242.85 82.134 243.2C81.6173 243.533 81.359 243.967 81.359 244.5C81.359 244.95 81.509 245.3 81.809 245.55C82.1257 245.783 82.5257 245.967 83.009 246.1C83.509 246.233 84.059 246.35 84.659 246.45C85.259 246.533 85.859 246.65 86.459 246.8C87.059 246.933 87.6007 247.125 88.084 247.375C88.584 247.625 88.984 247.975 89.284 248.425C89.6007 248.875 89.759 249.475 89.759 250.225C89.759 251.025 89.5257 251.717 89.059 252.3C88.5923 252.883 87.934 253.342 87.084 253.675C86.234 253.992 85.2173 254.15 84.034 254.15ZM94.7084 250.8L94.7584 247.725L102.383 240.75H105.283L99.4334 246.5L98.1334 247.6L94.7084 250.8ZM92.7584 254V235.45H95.1584V254H92.7584ZM102.883 254L97.6834 247.55L99.2334 245.625L105.833 254H102.883ZM113.527 254.15C112.11 254.15 110.86 253.858 109.777 253.275C108.71 252.692 107.877 251.892 107.277 250.875C106.693 249.858 106.402 248.692 106.402 247.375C106.402 246.058 106.685 244.892 107.252 243.875C107.835 242.858 108.627 242.067 109.627 241.5C110.643 240.917 111.785 240.625 113.052 240.625C114.335 240.625 115.468 240.908 116.452 241.475C117.435 242.042 118.202 242.842 118.752 243.875C119.318 244.892 119.602 246.083 119.602 247.45C119.602 247.55 119.593 247.667 119.577 247.8C119.577 247.933 119.568 248.058 119.552 248.175H108.277V246.45H118.302L117.327 247.05C117.343 246.2 117.168 245.442 116.802 244.775C116.435 244.108 115.927 243.592 115.277 243.225C114.643 242.842 113.902 242.65 113.052 242.65C112.218 242.65 111.477 242.842 110.827 243.225C110.177 243.592 109.668 244.117 109.302 244.8C108.935 245.467 108.752 246.233 108.752 247.1V247.5C108.752 248.383 108.952 249.175 109.352 249.875C109.768 250.558 110.343 251.092 111.077 251.475C111.81 251.858 112.652 252.05 113.602 252.05C114.385 252.05 115.093 251.917 115.727 251.65C116.377 251.383 116.943 250.983 117.427 250.45L118.752 252C118.152 252.7 117.402 253.233 116.502 253.6C115.618 253.967 114.627 254.15 113.527 254.15ZM127.484 254.15C126.151 254.15 125.118 253.792 124.384 253.075C123.651 252.358 123.284 251.333 123.284 250V237.85H125.684V249.9C125.684 250.617 125.859 251.167 126.209 251.55C126.576 251.933 127.093 252.125 127.759 252.125C128.509 252.125 129.134 251.917 129.634 251.5L130.384 253.225C130.018 253.542 129.576 253.775 129.059 253.925C128.559 254.075 128.034 254.15 127.484 254.15ZM121.034 242.725V240.75H129.484V242.725H121.034ZM140.311 254.15C139.177 254.15 138.152 253.9 137.236 253.4C136.336 252.883 135.619 252.125 135.086 251.125C134.569 250.125 134.311 248.875 134.311 247.375C134.311 245.875 134.577 244.625 135.111 243.625C135.661 242.625 136.386 241.875 137.286 241.375C138.202 240.875 139.211 240.625 140.311 240.625C141.611 240.625 142.761 240.908 143.761 241.475C144.761 242.042 145.552 242.833 146.136 243.85C146.719 244.85 147.011 246.025 147.011 247.375C147.011 248.725 146.719 249.908 146.136 250.925C145.552 251.942 144.761 252.733 143.761 253.3C142.761 253.867 141.611 254.15 140.311 254.15ZM133.286 254V235.45H135.686V244.275L135.436 247.35L135.586 250.425V254H133.286ZM140.111 252.05C140.961 252.05 141.719 251.858 142.386 251.475C143.069 251.092 143.602 250.55 143.986 249.85C144.386 249.133 144.586 248.308 144.586 247.375C144.586 246.425 144.386 245.608 143.986 244.925C143.602 244.225 143.069 243.683 142.386 243.3C141.719 242.917 140.961 242.725 140.111 242.725C139.277 242.725 138.519 242.917 137.836 243.3C137.169 243.683 136.636 244.225 136.236 244.925C135.852 245.608 135.661 246.425 135.661 247.375C135.661 248.308 135.852 249.133 136.236 249.85C136.636 250.55 137.169 251.092 137.836 251.475C138.519 251.858 139.277 252.05 140.111 252.05ZM156.002 254.15C154.668 254.15 153.485 253.858 152.452 253.275C151.418 252.692 150.602 251.892 150.002 250.875C149.402 249.842 149.102 248.675 149.102 247.375C149.102 246.058 149.402 244.892 150.002 243.875C150.602 242.858 151.418 242.067 152.452 241.5C153.485 240.917 154.668 240.625 156.002 240.625C157.318 240.625 158.493 240.917 159.527 241.5C160.577 242.067 161.393 242.858 161.977 243.875C162.577 244.875 162.877 246.042 162.877 247.375C162.877 248.692 162.577 249.858 161.977 250.875C161.393 251.892 160.577 252.692 159.527 253.275C158.493 253.858 157.318 254.15 156.002 254.15ZM156.002 252.05C156.852 252.05 157.61 251.858 158.277 251.475C158.96 251.092 159.493 250.55 159.877 249.85C160.26 249.133 160.452 248.308 160.452 247.375C160.452 246.425 160.26 245.608 159.877 244.925C159.493 244.225 158.96 243.683 158.277 243.3C157.61 242.917 156.852 242.725 156.002 242.725C155.152 242.725 154.393 242.917 153.727 243.3C153.06 243.683 152.527 244.225 152.127 244.925C151.727 245.608 151.527 246.425 151.527 247.375C151.527 248.308 151.727 249.133 152.127 249.85C152.527 250.55 153.06 251.092 153.727 251.475C154.393 251.858 155.152 252.05 156.002 252.05ZM166.196 254V235.45H168.596V254H166.196Z" fill="black"/>
<path d="M130.914 85.4999L130.514 84.5999C134.814 75.2999 131.914 63.1999 131.914 63.1999L132.614 62.6999L131.014 56.7999H130.014L125.114 46.6999C125.014 45.9999 124.414 45.2999 124.414 45.2999C123.314 44.5999 122.014 39.5999 122.014 39.5999C121.314 37.6999 118.914 35.4999 118.914 35.4999C117.714 34.5999 117.114 35.3999 117.114 35.3999C112.614 34.6999 110.314 36.2999 110.314 36.2999C104.814 40.0999 108.014 45.9999 108.014 45.9999C106.714 47.5999 110.514 49.6999 110.514 49.6999L110.214 51.1999L105.914 58.1999C103.114 63.4999 107.514 71.9999 107.514 71.9999C108.714 74.6999 107.814 80.8999 107.814 80.8999C107.114 81.9999 108.114 95.0999 108.114 95.0999C106.314 97.6999 107.714 99.5999 107.714 99.5999L105.914 101.6C102.114 103 104.114 104.7 104.114 104.7C102.714 105.2 103.614 107.7 103.614 107.7C100.814 108.6 102.714 111.1 102.714 111.1C103.014 113.3 101.514 122.1 102.214 122.5L102.114 123.7L102.614 124L102.314 127.2C102.314 129.4 99.3139 132.6 99.3139 132.6C96.6139 134.4 95.6139 138.8 95.6139 138.8C94.7139 140.8 92.1139 145 92.1139 145C91.3139 144.5 89.414 149.9 89.414 149.9C88.214 150 87.8139 152.7 87.8139 152.7C85.0139 154.6 84.414 158.9 84.414 158.9C84.314 160.7 83.3139 161.6 83.3139 161.6C79.8139 166.3 84.414 169.3 84.414 169.3C87.614 172.5 89.3139 167.1 89.3139 167.1C89.2139 165.9 89.714 163.7 89.714 163.7C90.614 161.3 92.5139 158.6 92.5139 158.6L96.0139 159.7C97.6139 160 96.1139 159.2 96.1139 159.2L92.714 157.8C93.114 157 93.0139 155.2 93.0139 155.2L93.1139 154.5C94.2139 153.1 94.3139 150.8 94.3139 150.8C95.4139 148.1 100.014 143 100.014 143C103.214 141 106.214 134.5 106.214 134.5C108.814 133.1 110.514 128.3 110.514 128.3C111.414 128.3 112.814 127.4 112.814 127.4L114.214 129.2C113.714 131.1 115.014 130.6 115.014 130.6L115.814 132.1C117.714 139.4 115.814 144.8 115.814 144.8C113.114 147.6 114.914 152.9 114.914 152.9L113.814 157.4C113.014 156.9 113.514 158.9 113.514 158.9C112.314 164.6 109.814 165.8 109.814 165.8C108.214 166.5 106.814 168.4 106.814 168.4C105.914 170.7 110.314 173.7 110.314 173.7C113.414 174.6 112.314 176.9 112.314 176.9C113.414 179.5 115.114 180.3 115.114 180.3C119.614 182.5 118.114 178.3 118.114 178.3C115.414 174.8 116.614 169 116.614 169L118.614 169.9C118.914 169.9 119.114 170 119.314 170.1C119.314 170 119.314 169.9 119.314 169.8L117.314 168.4L118.514 167.3C119.714 165.7 118.414 166.1 118.414 166.1C117.914 167.3 116.914 166 116.914 166C117.814 164.4 118.714 159.8 118.714 159.8C119.514 158.2 118.714 158.3 118.714 158.3C122.914 151.1 122.614 143.8 122.614 143.8C124.914 139.7 124.814 131.8 124.814 131.8L125.614 131.5C126.714 128.8 124.914 123 124.914 123C126.114 121.6 125.314 118.8 125.314 118.8C126.814 118.3 125.614 116.6 125.614 116.6L124.814 115.5C124.514 114.3 125.514 111.3 125.514 111.3C126.014 110.2 125.514 109.1 125.514 109.1L124.314 106L124.214 103.3L124.314 102.5C125.814 100.1 130.914 85.4999 130.914 85.4999ZM124.514 72.7999L124.214 70.3999C124.214 70.3999 126.014 69.2999 124.514 66.4999C124.514 66.4999 124.614 61.4999 120.614 60.0999C120.614 60.0999 117.114 59.6999 115.714 63.0999C115.714 63.0999 114.114 66.8999 114.514 67.9999L113.614 67.2999C113.614 67.2999 113.214 63.4999 111.614 62.7999C111.614 62.7999 113.614 57.7999 112.514 54.3999L113.414 52.0999L114.614 51.7999C114.614 51.7999 119.614 49.5999 121.114 47.0999C121.114 47.0999 122.014 46.9999 123.114 51.3999L124.714 57.8999L124.214 58.1999C124.214 58.1999 125.414 60.7999 125.014 62.8999C125.014 62.8999 125.514 63.3999 125.914 64.7999L126.014 70.0999L124.514 72.7999Z" fill="#693CBA"/>
<path d="M119.814 170C119.914 170.7 120.314 170.3 119.814 170V170Z" fill="#693CBA"/>
</svg>
