<svg width="216" height="260" viewBox="0 0 216 260" fill="none" xmlns="http://www.w3.org/2000/svg">
<path d="M215.3 107.9C215.3 167.215 167.215 215.3 107.9 215.3C48.5846 215.3 0.5 167.215 0.5 107.9C0.5 48.5846 48.5846 0.5 107.9 0.5C167.215 0.5 215.3 48.5846 215.3 107.9Z" fill="white" stroke="#693CBA"/>
<path d="M162.5 134.5C150.2 123.6 136.6 128.7 136.6 128.7L133.5 124.7C139.5 124.5 138.6 119.6 138.6 119.6C139.7 112.9 131.9 115.6 131.9 115.6C129 116.5 128.8 114.7 128.8 114.7C128.8 112.2 127 110.2 127 110.2C128.1 109.8 130.6 108 130.6 108C134.8 106.7 146 94.6004 146 94.6004C152.9 85.4004 146 77.2004 146 77.2004C153.6 79.2004 146.9 69.4004 146.9 69.4004L142.4 70.3004C140.8 68.7004 135 66.5004 135 66.5004L133.2 66.9004C129.4 63.8004 118.2 62.9004 118.2 62.9004C111.1 61.3004 105.9 66.3004 105.9 66.3004V62.1004C98.9 52.0004 90.1 58.3004 90.1 58.3004C82.7 64.3004 84.1 70.4004 84.1 70.4004L84.8 71.3004C80.3 76.2004 82.9 78.7004 82.9 78.7004L87.3 74.7004C88 75.4004 90.4 74.3004 90.4 74.3004C91.7 72.3004 93.7 76.3004 93.7 76.3004C97.9 73.8004 93.5 79.4004 93.5 79.4004L94.6 81.4004L99.7 82.3004L100.4 78.9004C101.7 74.0004 105.3 75.6004 105.3 75.6004L104.4 80.7004C103.7 83.6004 106.9 86.1004 106.9 86.1004C104.2 88.3004 96.4 86.8004 96.4 86.8004C91.9 86.8004 88.8 90.8004 88.8 90.8004C89 92.6004 87.9 93.5004 87.9 93.5004L86.8 95.7004L87.5 96.8004C86.2 99.3004 87.7 103.7 87.7 103.7L86.8 105.9L84.1 108.6C80.3 118.9 85.2 118.2 85.2 118.2L86.5 119.3L84.7 121.8L83.1 121.6L79.3 126.3C76.8 124.1 68.4 124.5 68.4 124.5C56.3 124.1 50.5 136.6 50.5 136.6C47.4 155.6 68.1 156.3 68.1 156.3C84.9 157 89.1 143.1 89.1 143.1C91.6 135.3 84.2 128.8 84.2 128.8L84.6 127.9L83.9 126.6L85.9 123.9L95.3 130.2L92.6 130.9C86.3 133.8 95.5 137.4 95.5 137.4L96.6 139L98.6 139.2L99.5 141L108.7 139.2C105.3 143.9 109.1 146.6 109.1 146.6C112 149.1 124.1 147.9 124.1 147.9L117 147L119.5 145.2C119.3 147 123.8 146.3 123.8 146.3V147.9C125.8 150.8 127.8 153.7 127.8 153.7C140.3 166 157.6 156.4 157.6 156.4C172 146.8 162.5 134.5 162.5 134.5ZM79.7 131.4L74.4 139.2L71.8 140.2C71.8 140.2 69.1 138.3 72 139.2L73.2 138.6L78.7 130.6L79.7 131.4ZM76.6 129.8L73.3 134.3L72.6 128.8C73.5 128.6 76.6 129.8 76.6 129.8ZM72 128.7L72.9 134.4L70.9 135.3L67.1 128.8C68.6 128.6 72 128.7 72 128.7ZM66.6 129L70.4 135.6C70.4 135.6 68.9 135.6 69 136.6L62.2 130.6C62.3 130.6 64.7 128.7 66.6 129ZM61.8 130.7L68.7 136.7C68.7 136.7 67.7 137.6 68.5 138.5L57 135C57 135 60.4 131.5 61.8 130.7ZM56.7 135.4L68.5 138.9C68.5 138.9 69.9 139.6 68.2 141.1L54.8 141.8C54.9 141.7 54.2 137.9 56.7 135.4ZM55.2 142.6L68.3 141.5C68.2 141.9 69.1 142.3 69.1 142.3L60.4 148.7C57.2 147.7 55.2 142.6 55.2 142.6ZM70.4 151V150.7C70.2 150.8 69.8 150.9 69.2 151C65.8 151.9 61.3 149.1 61.3 149.1L69.3 142.5C69.2 143.3 70.5 142.8 70.5 142.8L69.2 150.9C69.2 150.9 69.9 150.7 70.3 150.7L71 143.6C71 143.5 71 143.5 71 143.4V143.6C71.1 144 71.8 144.4 71.8 144.4C72.4 146.2 73.3 144.3 73.3 144.3L77.7 149.1C75.5 151.2 70.4 151 70.4 151ZM78.5 148.5L73.9 143.6L74.3 142.8L82.2 145.4L78.5 148.5ZM82.6 145L74.7 142.5L74.8 142.4L75.7 141.1L84.8 140.7C84.8 142.4 82.6 145 82.6 145ZM84.9 139.5L76 140.5L76.6 139.6L81.5 132.8C81.5 132.8 85.1 134.7 84.9 139.5ZM111.5 140.5L110.1 139.8C109.3 138.8 110.8 139.2 110.8 139.2L112.3 140.2C112.8 141 111.5 140.5 111.5 140.5ZM110.9 141.5L109.5 141.1C108.6 140.2 110.1 140.2 110.1 140.2L111.7 140.9C112.2 141.6 110.9 141.5 110.9 141.5ZM91.5 99.2004C91.5 99.2004 97.5 95.8004 96.6 91.8004C96.6 91.8004 103.5 95.4004 106.2 95.2004C106.2 95.2004 102.8 106.8 97.3 112.4C97.3 112.4 93.1 112.8 90.8 114.4C90.8 114.4 89.5 114.6 89.7 111.5C89.7 111.5 90.6 106.4 89.7 106.8L89.5 104.1L91.5 99.2004ZM103.3 137.4L102.9 136.5L105.1 135.2L106.7 137L103.3 137.4ZM103.1 128.7L100.4 128.9L87.9 121.1L106.4 124.9L106.8 126.7C106.9 126.7 104.2 127.6 103.1 128.7ZM108.7 117.1C108.7 117.1 107.1 120.5 107.4 121.6L99.4 120L97.8 120.9L93.8 120.2C93.8 120.2 92.5 117.5 96 117.5C96 117.5 101.6 114.8 104.9 110.8L111.2 104.5C111.2 104.5 110.3 107.9 110.5 110.5C110.5 110.6 110.5 114 108.7 117.1ZM109.2 141.5H111C112 142 110.9 142.2 110.9 142.2H109C107.9 142.1 109.2 141.5 109.2 141.5ZM109.2 143.1L111 142.8C111.9 143 111.2 143.4 111.2 143.4L109.8 143.9C108.6 144 109.2 143.1 109.2 143.1ZM110.2 144.2L111.4 143.6C112.6 143.2 111.9 144.1 111.9 144.1L110.9 144.9C109.3 145.5 110.2 144.2 110.2 144.2ZM111.1 145.3L112 144.5C112 144.5 113.3 143.5 113 144.8L112.3 145.6C112.2 145.6 110.6 146.5 111.1 145.3ZM113.9 146.1C113.9 146.1 112.9 147.3 112.6 146.1L113.2 145C113.2 145 113.9 143.6 114.1 145L113.9 146.1ZM118.3 83.4004C119 85.0004 121.4 83.0004 121.4 83.0004C122.1 83.2004 123.2 83.0004 123.2 83.0004C123.9 82.1004 126.3 83.9004 126.3 83.9004L114.5 96.2004L118.3 83.4004ZM115.6 128.7L118.1 126.9L122.1 127.6L116.3 136.1L115.4 135.4C115.4 135.4 116.7 130.9 115.6 128.7ZM117.6 123.3L118.7 119.5L122.9 124.6L117.6 123.3ZM114.6 146.3L114.5 145.1C114.5 145.1 114.6 144 115.3 144.9L115.8 145.8C115.9 145.8 115.4 147.2 114.6 146.3ZM116.6 145.9L115.9 144.7C115.9 144.7 115.5 143.3 116.5 144.1L117.4 145C117.4 145.1 117.6 146.4 116.6 145.9ZM118.1 145L117.5 144.5C116.2 143.2 118.1 143.8 118.1 143.8L119 144.5C119.5 145.3 118.1 145 118.1 145ZM119.6 143.7C119 144.4 118.8 143.6 118.7 143.5L118.8 143.1C119.9 143 119.6 143.7 119.6 143.7ZM125.9 137.1H117.9L123.5 129L128.2 133.2L125.9 137.1ZM160.1 141.8L146.5 142.5L147 141.8L147.1 141.1C147.1 141.1 152.9 141.5 153.6 141.2L159.7 140.5L160.1 141.8ZM159.6 140.2L154.6 140.6L158.5 138.4L159.6 140.2ZM158.3 138.2L153.3 141L149.7 141.1L149.3 140.5H147.9V140.2L149.9 140V139.5L152.6 137.7L157.1 136.8L158.3 138.2ZM153.4 134.1C153.4 134.1 154.5 134.7 154.9 135.1L148.9 139.3L153.4 133.9V134.1ZM152.8 134L149.1 138.4L151.4 133.4L152.8 134ZM145.9 132.4L145.3 135.6L144.5 132.3L145.9 132.4ZM143.9 132.3L145.3 137.5L144 137.6L141.9 132.5C142.5 132.1 143.9 132.3 143.9 132.3ZM141.3 132.5L143.7 137.6C143.7 137.6 141.1 138.1 140.1 136.7C140.1 136.7 141.2 136.6 140.5 135.4L139.3 133.2L139.2 133.1C139.2 133.1 140.7 132.4 141.3 132.5ZM142.9 143.7C142.5 143.8 142.4 144.2 142.4 144.2C141.4 145.7 138.5 142 138.5 142L142.1 142.7C143.8 143.1 142.9 143.7 142.9 143.7ZM137.8 140.1C138.2 139.3 140.4 140.4 140.4 140.4C141 139.6 141.9 140.6 141.9 140.6V142.4C140.9 142.4 136.4 140.7 136.4 140.7C134.4 139.2 137.8 140.1 137.8 140.1ZM132.9 141.7C134.4 140.4 135.8 141.7 135.8 141.7L138.8 144.5L133 143.5C130.7 143.3 132.9 141.7 132.9 141.7ZM129.8 145.3C135.4 146.1 134.8 146.7 134.8 146.7L130.1 146.8C128.8 146.6 129.8 145.3 129.8 145.3ZM130.6 147.7L138.4 147.5L133.9 151.1C133.1 150.9 130.6 147.7 130.6 147.7ZM137.7 153L137.8 152.9C137.7 152.9 137.6 152.9 137.6 152.9C136 152.6 134.8 151.5 134.8 151.5L139.2 147.5L139.3 147.4L143 147.8L137.9 153C139 153.1 137.7 153 137.7 153ZM142.2 154.1L138.6 153.2L142.5 149L142.2 154.1ZM145.2 154.1L142.8 154.2L143.5 148H145.6L145.2 154.1ZM145.5 135.7L146.6 132.3C146.6 132.3 148.1 132.2 148.6 132.5L145.7 136.7L145.5 135.7ZM149.1 132.6C149.1 132.6 150.6 133 151 133.3L148.5 138.9H147.1L146.3 137.9L145.9 137.7L149.1 132.6ZM149.5 153.5C148.2 154.2 146 154.1 146 154.1L145.9 148.2L149.7 153.3C149.7 153.4 150.8 152.8 149.5 153.5ZM150.1 153.2L145.9 147.1V147L154.6 151.2C153.8 152.4 150.1 153.2 150.1 153.2ZM155.5 150.9L148.2 146.7L148.3 146.6L159.2 147.2C159 148 155.5 150.9 155.5 150.9ZM159.3 146.7L148.5 146L148.9 145.3H147.8L147.9 144.3L147.5 144L147.3 143.1L160.1 142.2C160.1 142.3 160.6 145.5 159.3 146.7Z" fill="#693CBA"/>
<path d="M137.7 153C137.7 153 139 153.1 137.8 152.9L137.7 153Z" fill="#693CBA"/>
<path d="M154.9 135.1C154.6 134.7 153.4 134.1 153.4 134.1V134" fill="#693CBA"/>
<path d="M64.4827 254.2C63.1494 254.2 61.916 253.983 60.7827 253.55C59.666 253.1 58.691 252.475 57.8577 251.675C57.041 250.858 56.3994 249.908 55.9327 248.825C55.466 247.742 55.2327 246.55 55.2327 245.25C55.2327 243.95 55.466 242.758 55.9327 241.675C56.3994 240.592 57.0494 239.65 57.8827 238.85C58.716 238.033 59.691 237.408 60.8077 236.975C61.941 236.525 63.1744 236.3 64.5077 236.3C65.8577 236.3 67.0994 236.533 68.2327 237C69.3827 237.45 70.3577 238.125 71.1577 239.025L69.5327 240.6C68.866 239.9 68.116 239.383 67.2827 239.05C66.4494 238.7 65.5577 238.525 64.6077 238.525C63.6244 238.525 62.7077 238.692 61.8577 239.025C61.0244 239.358 60.2994 239.825 59.6827 240.425C59.066 241.025 58.5827 241.742 58.2327 242.575C57.8994 243.392 57.7327 244.283 57.7327 245.25C57.7327 246.217 57.8994 247.117 58.2327 247.95C58.5827 248.767 59.066 249.475 59.6827 250.075C60.2994 250.675 61.0244 251.142 61.8577 251.475C62.7077 251.808 63.6244 251.975 64.6077 251.975C65.5577 251.975 66.4494 251.808 67.2827 251.475C68.116 251.125 68.866 250.592 69.5327 249.875L71.1577 251.45C70.3577 252.35 69.3827 253.033 68.2327 253.5C67.0994 253.967 65.8494 254.2 64.4827 254.2ZM74.3741 254V240.75H76.7741V254H74.3741ZM75.5741 238.2C75.1075 238.2 74.7158 238.05 74.3991 237.75C74.0991 237.45 73.9491 237.083 73.9491 236.65C73.9491 236.2 74.0991 235.825 74.3991 235.525C74.7158 235.225 75.1075 235.075 75.5741 235.075C76.0408 235.075 76.4241 235.225 76.7241 235.525C77.0408 235.808 77.1991 236.167 77.1991 236.6C77.1991 237.05 77.0491 237.433 76.7491 237.75C76.4491 238.05 76.0575 238.2 75.5741 238.2ZM87.1315 254.15C85.7815 254.15 84.5732 253.858 83.5065 253.275C82.4565 252.692 81.6315 251.892 81.0315 250.875C80.4315 249.858 80.1315 248.692 80.1315 247.375C80.1315 246.058 80.4315 244.892 81.0315 243.875C81.6315 242.858 82.4565 242.067 83.5065 241.5C84.5732 240.917 85.7815 240.625 87.1315 240.625C88.3315 240.625 89.3982 240.867 90.3315 241.35C91.2815 241.817 92.0149 242.517 92.5315 243.45L90.7065 244.625C90.2732 243.975 89.7399 243.5 89.1065 243.2C88.4899 242.883 87.8232 242.725 87.1065 242.725C86.2399 242.725 85.4649 242.917 84.7815 243.3C84.0982 243.683 83.5565 244.225 83.1565 244.925C82.7565 245.608 82.5565 246.425 82.5565 247.375C82.5565 248.325 82.7565 249.15 83.1565 249.85C83.5565 250.55 84.0982 251.092 84.7815 251.475C85.4649 251.858 86.2399 252.05 87.1065 252.05C87.8232 252.05 88.4899 251.9 89.1065 251.6C89.7399 251.283 90.2732 250.8 90.7065 250.15L92.5315 251.3C92.0149 252.217 91.2815 252.925 90.3315 253.425C89.3982 253.908 88.3315 254.15 87.1315 254.15ZM95.4679 254V235.45H97.8679V254H95.4679ZM102.45 254V240.75H104.85V254H102.45ZM103.65 238.2C103.184 238.2 102.792 238.05 102.475 237.75C102.175 237.45 102.025 237.083 102.025 236.65C102.025 236.2 102.175 235.825 102.475 235.525C102.792 235.225 103.184 235.075 103.65 235.075C104.117 235.075 104.5 235.225 104.8 235.525C105.117 235.808 105.275 236.167 105.275 236.6C105.275 237.05 105.125 237.433 104.825 237.75C104.525 238.05 104.134 238.2 103.65 238.2ZM113.233 254.15C112.133 254.15 111.083 254 110.083 253.7C109.099 253.4 108.324 253.033 107.758 252.6L108.758 250.7C109.324 251.083 110.024 251.408 110.858 251.675C111.691 251.942 112.541 252.075 113.408 252.075C114.524 252.075 115.324 251.917 115.808 251.6C116.308 251.283 116.558 250.842 116.558 250.275C116.558 249.858 116.408 249.533 116.108 249.3C115.808 249.067 115.408 248.892 114.908 248.775C114.424 248.658 113.883 248.558 113.283 248.475C112.683 248.375 112.083 248.258 111.483 248.125C110.883 247.975 110.333 247.775 109.833 247.525C109.333 247.258 108.933 246.9 108.633 246.45C108.333 245.983 108.183 245.367 108.183 244.6C108.183 243.8 108.408 243.1 108.858 242.5C109.308 241.9 109.941 241.442 110.758 241.125C111.591 240.792 112.574 240.625 113.708 240.625C114.574 240.625 115.449 240.733 116.333 240.95C117.233 241.15 117.966 241.442 118.533 241.825L117.508 243.725C116.908 243.325 116.283 243.05 115.633 242.9C114.983 242.75 114.333 242.675 113.683 242.675C112.633 242.675 111.849 242.85 111.333 243.2C110.816 243.533 110.558 243.967 110.558 244.5C110.558 244.95 110.708 245.3 111.008 245.55C111.324 245.783 111.724 245.967 112.208 246.1C112.708 246.233 113.258 246.35 113.858 246.45C114.458 246.533 115.058 246.65 115.658 246.8C116.258 246.933 116.799 247.125 117.283 247.375C117.783 247.625 118.183 247.975 118.483 248.425C118.799 248.875 118.958 249.475 118.958 250.225C118.958 251.025 118.724 251.717 118.258 252.3C117.791 252.883 117.133 253.342 116.283 253.675C115.433 253.992 114.416 254.15 113.233 254.15ZM138.532 240.625C139.599 240.625 140.54 240.833 141.357 241.25C142.174 241.667 142.807 242.3 143.257 243.15C143.724 244 143.957 245.075 143.957 246.375V254H141.557V246.65C141.557 245.367 141.257 244.4 140.657 243.75C140.057 243.1 139.215 242.775 138.132 242.775C137.332 242.775 136.632 242.942 136.032 243.275C135.432 243.608 134.965 244.1 134.632 244.75C134.315 245.4 134.157 246.208 134.157 247.175V254H131.757V246.65C131.757 245.367 131.457 244.4 130.857 243.75C130.274 243.1 129.432 242.775 128.332 242.775C127.549 242.775 126.857 242.942 126.257 243.275C125.657 243.608 125.19 244.1 124.857 244.75C124.524 245.4 124.357 246.208 124.357 247.175V254H121.957V240.75H124.257V244.275L123.882 243.375C124.299 242.508 124.94 241.833 125.807 241.35C126.674 240.867 127.682 240.625 128.832 240.625C130.099 240.625 131.19 240.942 132.107 241.575C133.024 242.192 133.624 243.133 133.907 244.4L132.932 244C133.332 242.983 134.032 242.167 135.032 241.55C136.032 240.933 137.199 240.625 138.532 240.625ZM154.048 254.15C152.715 254.15 151.531 253.858 150.498 253.275C149.465 252.692 148.648 251.892 148.048 250.875C147.448 249.842 147.148 248.675 147.148 247.375C147.148 246.058 147.448 244.892 148.048 243.875C148.648 242.858 149.465 242.067 150.498 241.5C151.531 240.917 152.715 240.625 154.048 240.625C155.365 240.625 156.54 240.917 157.573 241.5C158.623 242.067 159.44 242.858 160.023 243.875C160.623 244.875 160.923 246.042 160.923 247.375C160.923 248.692 160.623 249.858 160.023 250.875C159.44 251.892 158.623 252.692 157.573 253.275C156.54 253.858 155.365 254.15 154.048 254.15ZM154.048 252.05C154.898 252.05 155.656 251.858 156.323 251.475C157.006 251.092 157.54 250.55 157.923 249.85C158.306 249.133 158.498 248.308 158.498 247.375C158.498 246.425 158.306 245.608 157.923 244.925C157.54 244.225 157.006 243.683 156.323 243.3C155.656 242.917 154.898 242.725 154.048 242.725C153.198 242.725 152.44 242.917 151.773 243.3C151.106 243.683 150.573 244.225 150.173 244.925C149.773 245.608 149.573 246.425 149.573 247.375C149.573 248.308 149.773 249.133 150.173 249.85C150.573 250.55 151.106 251.092 151.773 251.475C152.44 251.858 153.198 252.05 154.048 252.05Z" fill="black"/>
</svg>
