<svg width="216" height="260" viewBox="0 0 216 260" fill="none" xmlns="http://www.w3.org/2000/svg">
<path d="M215.3 107.9C215.3 167.215 167.215 215.3 107.9 215.3C48.5846 215.3 0.5 167.215 0.5 107.9C0.5 48.5846 48.5846 0.5 107.9 0.5C167.215 0.5 215.3 48.5846 215.3 107.9Z" fill="white" stroke="#693CBA"/>
<path d="M197.701 138.6C196.9 133.5 192.101 136 192.101 136C189.501 136 187.701 135.2 187.701 135.2C183.301 131.6 175.601 127.8 175.601 127.8C172.801 127 167.901 123.7 167.901 123.7L155.601 107.8C156.101 99.7996 152.501 99.2996 152.501 99.2996C152.501 99.2996 151.701 95.6996 152.201 94.6996L156.801 99.0996L157.101 108.6C159.201 112.4 164.801 110.9 164.801 110.9C166.601 110.4 165.801 108.6 165.801 108.6C167.301 108.1 163.501 105.8 163.501 105.8L161.701 105.3L162.701 99.3996C163.201 94.7996 159.401 92.4996 159.401 92.4996C159.101 91.1996 155.801 87.0996 155.801 87.0996L155.001 83.9996C152.901 80.3996 140.901 72.1996 140.901 72.1996C138.801 71.1996 140.401 66.7996 140.401 66.7996L135.001 64.1996L133.201 62.0996L129.901 64.1996C125.001 65.4996 124.001 69.7996 123.201 69.5996C122.401 69.2996 122.401 66.4996 122.401 66.4996C122.401 62.6996 116.001 63.8996 116.001 63.8996C109.101 67.9996 116.001 71.8996 116.001 71.8996C117.501 72.3996 121.601 75.9996 121.601 75.9996C113.901 78.2996 99.8005 85.9996 99.8005 85.9996L100.301 83.3996C103.901 83.3996 105.401 74.6996 105.401 74.6996C106.701 65.1996 102.301 65.6996 102.301 65.6996C100.201 65.9996 93.1005 64.6996 93.1005 64.6996C89.8005 68.2996 90.0005 74.6996 90.0005 74.6996C77.7005 76.1996 73.1005 88.5996 73.1005 88.5996C71.3005 93.6996 65.7005 97.7996 65.7005 97.7996C57.5005 103.2 59.8005 111.7 59.8005 111.7L53.1005 123.8C51.8005 126.4 48.7005 126.6 48.7005 126.6C44.9005 124 34.8005 128.4 34.8005 128.4C29.9005 130.5 26.3005 131 26.3005 131C22.7005 128.4 18.3005 132.1 18.3005 132.1C16.6005 139.9 20.7005 140.9 20.7005 140.9C23.8005 144.7 24.8005 141.9 24.8005 141.9C25.3005 140.4 24.3005 138.9 24.3005 138.9C26.1005 135.3 32.3005 134.3 32.3005 134.3H42.6005C45.7005 133.5 48.8005 134.4 48.8005 134.4C53.7005 135.2 57.8005 131.7 57.8005 131.7C61.4005 129.1 72.9005 116.8 72.9005 116.8C78.5005 117.8 93.2005 115.5 93.2005 115.5C90.1005 121.7 92.4005 127.6 92.4005 127.6L90.9005 137.3C88.8005 140.9 89.9005 143.7 89.9005 143.7C93.2005 144.7 106.301 144.7 106.301 144.7C108.601 143.9 106.801 142.4 106.801 142.4C105.501 141.9 103.001 140.3 103.001 140.3C101.501 138 99.4005 138.5 99.4005 138.5C99.4005 136.4 97.6005 134.9 97.6005 134.9L101.401 113.6C102.401 107.7 98.6005 107.4 98.6005 107.4L85.5005 103C85.5005 103 87.0005 99.8996 88.3005 99.3996C88.3005 99.3996 87.8005 98.3996 89.3005 98.0996L97.8005 92.6996L98.6005 89.8996L100.101 91.1996L99.6005 87.5996C106.301 81.6996 122.701 76.5996 122.701 76.5996L128.301 81.9996C128.001 85.2996 133.201 97.3996 133.201 97.3996C131.701 98.1996 133.701 104.1 133.701 104.1C129.101 102.3 112.901 107.7 112.901 107.7C108.001 110.3 111.901 117.2 111.901 117.2C112.401 120.3 115.201 126.7 115.201 126.7C116.701 128.8 118.801 135.9 118.801 135.9C118.501 139.5 111.401 141.5 111.401 141.5C107.601 142.5 110.401 144.6 110.401 144.6L125.501 144.3C127.301 143.8 126.001 140.5 126.001 140.5C125.701 135.6 124.201 137.4 124.201 137.4C123.201 135.3 122.101 127.7 122.101 127.7C121.801 121.5 119.801 117.2 119.801 117.2C118.501 113.9 121.601 115.1 121.601 115.1C126.201 116.4 139.801 116.6 139.801 116.6C141.101 118.1 144.201 116.9 144.201 116.9C146.301 117.7 161.901 129.5 161.901 129.5C164.201 133.9 172.701 133.6 172.701 133.6C174.001 136.2 188.301 140.5 188.301 140.5C190.601 144.1 186.501 149.5 186.501 149.5C182.101 150.3 183.901 153.1 183.901 153.1C189.501 154.6 191.601 150 191.601 150C191.601 147.2 196.001 143.6 196.001 143.6C198.201 142 197.701 138.6 197.701 138.6Z" fill="#693CBA"/>
<path d="M60.0074 244.05H69.0074V246.175H60.0074V244.05ZM60.2324 251.825H70.4324V254H57.7324V236.5H70.0824V238.675H60.2324V251.825ZM77.7596 254.15C76.6596 254.15 75.6096 254 74.6096 253.7C73.6262 253.4 72.8512 253.033 72.2846 252.6L73.2846 250.7C73.8512 251.083 74.5512 251.408 75.3846 251.675C76.2179 251.942 77.0679 252.075 77.9346 252.075C79.0512 252.075 79.8512 251.917 80.3346 251.6C80.8346 251.283 81.0846 250.842 81.0846 250.275C81.0846 249.858 80.9346 249.533 80.6346 249.3C80.3346 249.067 79.9346 248.892 79.4346 248.775C78.9512 248.658 78.4096 248.558 77.8096 248.475C77.2096 248.375 76.6096 248.258 76.0096 248.125C75.4096 247.975 74.8596 247.775 74.3596 247.525C73.8596 247.258 73.4596 246.9 73.1596 246.45C72.8596 245.983 72.7096 245.367 72.7096 244.6C72.7096 243.8 72.9346 243.1 73.3846 242.5C73.8346 241.9 74.4679 241.442 75.2846 241.125C76.1179 240.792 77.1012 240.625 78.2346 240.625C79.1012 240.625 79.9762 240.733 80.8596 240.95C81.7596 241.15 82.4929 241.442 83.0596 241.825L82.0346 243.725C81.4346 243.325 80.8096 243.05 80.1596 242.9C79.5096 242.75 78.8596 242.675 78.2096 242.675C77.1596 242.675 76.3762 242.85 75.8596 243.2C75.3429 243.533 75.0846 243.967 75.0846 244.5C75.0846 244.95 75.2346 245.3 75.5346 245.55C75.8512 245.783 76.2512 245.967 76.7346 246.1C77.2346 246.233 77.7846 246.35 78.3846 246.45C78.9846 246.533 79.5846 246.65 80.1846 246.8C80.7846 246.933 81.3262 247.125 81.8096 247.375C82.3096 247.625 82.7096 247.975 83.0096 248.425C83.3262 248.875 83.4846 249.475 83.4846 250.225C83.4846 251.025 83.2512 251.717 82.7846 252.3C82.3179 252.883 81.6596 253.342 80.8096 253.675C79.9596 253.992 78.9429 254.15 77.7596 254.15ZM92.284 259C91.0673 259 89.884 258.825 88.734 258.475C87.6007 258.142 86.6757 257.658 85.959 257.025L87.109 255.175C87.7257 255.708 88.484 256.125 89.384 256.425C90.284 256.742 91.2257 256.9 92.209 256.9C93.7757 256.9 94.9257 256.533 95.659 255.8C96.3923 255.067 96.759 253.95 96.759 252.45V249.65L97.009 247.025L96.884 244.375V240.75H99.159V252.2C99.159 254.533 98.5757 256.25 97.409 257.35C96.2423 258.45 94.534 259 92.284 259ZM91.984 253.45C90.7007 253.45 89.5507 253.183 88.534 252.65C87.534 252.1 86.734 251.342 86.134 250.375C85.5507 249.408 85.259 248.292 85.259 247.025C85.259 245.742 85.5507 244.625 86.134 243.675C86.734 242.708 87.534 241.958 88.534 241.425C89.5507 240.892 90.7007 240.625 91.984 240.625C93.1173 240.625 94.1507 240.858 95.084 241.325C96.0173 241.775 96.759 242.475 97.309 243.425C97.8757 244.375 98.159 245.575 98.159 247.025C98.159 248.458 97.8757 249.65 97.309 250.6C96.759 251.55 96.0173 252.267 95.084 252.75C94.1507 253.217 93.1173 253.45 91.984 253.45ZM92.259 251.35C93.1423 251.35 93.9257 251.167 94.609 250.8C95.2923 250.433 95.8257 249.925 96.209 249.275C96.609 248.625 96.809 247.875 96.809 247.025C96.809 246.175 96.609 245.425 96.209 244.775C95.8257 244.125 95.2923 243.625 94.609 243.275C93.9257 242.908 93.1423 242.725 92.259 242.725C91.3757 242.725 90.584 242.908 89.884 243.275C89.2007 243.625 88.659 244.125 88.259 244.775C87.8757 245.425 87.684 246.175 87.684 247.025C87.684 247.875 87.8757 248.625 88.259 249.275C88.659 249.925 89.2007 250.433 89.884 250.8C90.584 251.167 91.3757 251.35 92.259 251.35ZM103.745 254V240.75H106.045V244.35L105.82 243.45C106.186 242.533 106.803 241.833 107.67 241.35C108.536 240.867 109.603 240.625 110.87 240.625V242.95C110.77 242.933 110.67 242.925 110.57 242.925C110.486 242.925 110.403 242.925 110.32 242.925C109.036 242.925 108.02 243.308 107.27 244.075C106.52 244.842 106.145 245.95 106.145 247.4V254H103.745ZM113.828 254V240.75H116.228V254H113.828ZM115.028 238.2C114.561 238.2 114.169 238.05 113.853 237.75C113.553 237.45 113.403 237.083 113.403 236.65C113.403 236.2 113.553 235.825 113.853 235.525C114.169 235.225 114.561 235.075 115.028 235.075C115.494 235.075 115.878 235.225 116.178 235.525C116.494 235.808 116.653 236.167 116.653 236.6C116.653 237.05 116.503 237.433 116.203 237.75C115.903 238.05 115.511 238.2 115.028 238.2ZM137.385 240.625C138.452 240.625 139.393 240.833 140.21 241.25C141.027 241.667 141.66 242.3 142.11 243.15C142.577 244 142.81 245.075 142.81 246.375V254H140.41V246.65C140.41 245.367 140.11 244.4 139.51 243.75C138.91 243.1 138.068 242.775 136.985 242.775C136.185 242.775 135.485 242.942 134.885 243.275C134.285 243.608 133.818 244.1 133.485 244.75C133.168 245.4 133.01 246.208 133.01 247.175V254H130.61V246.65C130.61 245.367 130.31 244.4 129.71 243.75C129.127 243.1 128.285 242.775 127.185 242.775C126.402 242.775 125.71 242.942 125.11 243.275C124.51 243.608 124.043 244.1 123.71 244.75C123.377 245.4 123.21 246.208 123.21 247.175V254H120.81V240.75H123.11V244.275L122.735 243.375C123.152 242.508 123.793 241.833 124.66 241.35C125.527 240.867 126.535 240.625 127.685 240.625C128.952 240.625 130.043 240.942 130.96 241.575C131.877 242.192 132.477 243.133 132.76 244.4L131.785 244C132.185 242.983 132.885 242.167 133.885 241.55C134.885 240.933 136.052 240.625 137.385 240.625ZM155.451 254V251.2L155.326 250.675V245.9C155.326 244.883 155.026 244.1 154.426 243.55C153.843 242.983 152.96 242.7 151.776 242.7C150.993 242.7 150.226 242.833 149.476 243.1C148.726 243.35 148.093 243.692 147.576 244.125L146.576 242.325C147.26 241.775 148.076 241.358 149.026 241.075C149.993 240.775 151.001 240.625 152.051 240.625C153.868 240.625 155.268 241.067 156.251 241.95C157.235 242.833 157.726 244.183 157.726 246V254H155.451ZM151.101 254.15C150.118 254.15 149.251 253.983 148.501 253.65C147.768 253.317 147.201 252.858 146.801 252.275C146.401 251.675 146.201 251 146.201 250.25C146.201 249.533 146.368 248.883 146.701 248.3C147.051 247.717 147.61 247.25 148.376 246.9C149.16 246.55 150.21 246.375 151.526 246.375H155.726V248.1H151.626C150.426 248.1 149.618 248.3 149.201 248.7C148.785 249.1 148.576 249.583 148.576 250.15C148.576 250.8 148.835 251.325 149.351 251.725C149.868 252.108 150.585 252.3 151.501 252.3C152.401 252.3 153.185 252.1 153.851 251.7C154.535 251.3 155.026 250.717 155.326 249.95L155.801 251.6C155.485 252.383 154.926 253.008 154.126 253.475C153.326 253.925 152.318 254.15 151.101 254.15Z" fill="black"/>
</svg>
