<svg id="Layer_1" data-name="Layer 1" xmlns="http://www.w3.org/2000/svg" viewBox="0 0 3000 3000"><defs><style>.cls-1{fill:#1977f3;}.cls-2{fill:#fefefe;}</style></defs><title>Artboard 1</title><g id="Layer_1-2" data-name="Layer_1"><path class="cls-1" d="M2777.79,1500c0-705.65-572.14-1277.79-1277.79-1277.79S222.21,794.35,222.21,1500c0,637.72,467.2,1166.38,1078.15,1262.34V1869.45H975.84V1500h324.52V1218.42c0-320.21,190.83-497.2,482.65-497.2,139.81,0,286.07,25,286.07,25v314.46H1907.9c-158.67,0-208.26,98.47-208.26,199.64V1500H2054l-56.6,369.45H1699.64v892.89C2310.59,2666.56,2777.79,2137.91,2777.79,1500Z"/><path class="cls-2" d="M1997.39,1869.45,2054,1500H1699.64V1260.29c0-101,49.41-199.64,208.26-199.64h161.18V746.19s-146.26-25-286.07-25c-291.82,0-482.65,176.81-482.65,497.2V1500H975.84v369.45h324.52v892.89A1283.16,1283.16,0,0,0,1500,2777.79a1305.55,1305.55,0,0,0,199.64-15.45V1869.45Z"/></g></svg>