<svg width="216" height="260" viewBox="0 0 216 260" fill="none" xmlns="http://www.w3.org/2000/svg">
<path d="M215.3 107.9C215.3 167.215 167.215 215.3 107.9 215.3C48.5846 215.3 0.5 167.215 0.5 107.9C0.5 48.5846 48.5846 0.5 107.9 0.5C167.215 0.5 215.3 48.5846 215.3 107.9Z" fill="white" stroke="#693CBA"/>
<path d="M75.0664 244.775H84.0914V246.925H75.0664V244.775ZM75.3164 254H72.8164V236.5H85.1664V238.675H75.3164V254ZM93.4955 254.15C92.3622 254.15 91.3622 253.942 90.4955 253.525C89.6455 253.108 88.9788 252.475 88.4955 251.625C88.0288 250.758 87.7955 249.675 87.7955 248.375V240.75H90.1955V248.1C90.1955 249.4 90.5038 250.375 91.1205 251.025C91.7538 251.675 92.6372 252 93.7705 252C94.6038 252 95.3288 251.833 95.9455 251.5C96.5622 251.15 97.0372 250.65 97.3705 250C97.7038 249.333 97.8705 248.533 97.8705 247.6V240.75H100.271V254H97.9955V250.425L98.3705 251.375C97.9372 252.258 97.2872 252.942 96.4205 253.425C95.5538 253.908 94.5788 254.15 93.4955 254.15ZM109.389 254.15C108.056 254.15 107.023 253.792 106.289 253.075C105.556 252.358 105.189 251.333 105.189 250V237.85H107.589V249.9C107.589 250.617 107.764 251.167 108.114 251.55C108.481 251.933 108.998 252.125 109.664 252.125C110.414 252.125 111.039 251.917 111.539 251.5L112.289 253.225C111.923 253.542 111.481 253.775 110.964 253.925C110.464 254.075 109.939 254.15 109.389 254.15ZM102.939 242.725V240.75H111.389V242.725H102.939ZM122.216 254.15C121.083 254.15 120.058 253.9 119.141 253.4C118.241 252.883 117.524 252.125 116.991 251.125C116.474 250.125 116.216 248.875 116.216 247.375C116.216 245.875 116.483 244.625 117.016 243.625C117.566 242.625 118.291 241.875 119.191 241.375C120.108 240.875 121.116 240.625 122.216 240.625C123.516 240.625 124.666 240.908 125.666 241.475C126.666 242.042 127.458 242.833 128.041 243.85C128.624 244.85 128.916 246.025 128.916 247.375C128.916 248.725 128.624 249.908 128.041 250.925C127.458 251.942 126.666 252.733 125.666 253.3C124.666 253.867 123.516 254.15 122.216 254.15ZM115.191 254V235.45H117.591V244.275L117.341 247.35L117.491 250.425V254H115.191ZM122.016 252.05C122.866 252.05 123.624 251.858 124.291 251.475C124.974 251.092 125.508 250.55 125.891 249.85C126.291 249.133 126.491 248.308 126.491 247.375C126.491 246.425 126.291 245.608 125.891 244.925C125.508 244.225 124.974 243.683 124.291 243.3C123.624 242.917 122.866 242.725 122.016 242.725C121.183 242.725 120.424 242.917 119.741 243.3C119.074 243.683 118.541 244.225 118.141 244.925C117.758 245.608 117.566 246.425 117.566 247.375C117.566 248.308 117.758 249.133 118.141 249.85C118.541 250.55 119.074 251.092 119.741 251.475C120.424 251.858 121.183 252.05 122.016 252.05ZM137.907 254.15C136.574 254.15 135.39 253.858 134.357 253.275C133.324 252.692 132.507 251.892 131.907 250.875C131.307 249.842 131.007 248.675 131.007 247.375C131.007 246.058 131.307 244.892 131.907 243.875C132.507 242.858 133.324 242.067 134.357 241.5C135.39 240.917 136.574 240.625 137.907 240.625C139.224 240.625 140.399 240.917 141.432 241.5C142.482 242.067 143.299 242.858 143.882 243.875C144.482 244.875 144.782 246.042 144.782 247.375C144.782 248.692 144.482 249.858 143.882 250.875C143.299 251.892 142.482 252.692 141.432 253.275C140.399 253.858 139.224 254.15 137.907 254.15ZM137.907 252.05C138.757 252.05 139.515 251.858 140.182 251.475C140.865 251.092 141.399 250.55 141.782 249.85C142.165 249.133 142.357 248.308 142.357 247.375C142.357 246.425 142.165 245.608 141.782 244.925C141.399 244.225 140.865 243.683 140.182 243.3C139.515 242.917 138.757 242.725 137.907 242.725C137.057 242.725 136.299 242.917 135.632 243.3C134.965 243.683 134.432 244.225 134.032 244.925C133.632 245.608 133.432 246.425 133.432 247.375C133.432 248.308 133.632 249.133 134.032 249.85C134.432 250.55 134.965 251.092 135.632 251.475C136.299 251.858 137.057 252.05 137.907 252.05ZM148.101 254V235.45H150.501V254H148.101Z" fill="black"/>
<path d="M168.1 129.4C166.8 123 166.5 130.7 166.5 130.7C166.5 136 163.8 137.4 163.8 137.4C162.2 139.5 162.5 135 162.5 135C161.7 132.6 160.6 134.7 160.6 134.7L160.9 137.6C160.1 139.7 160.6 141.6 160.6 141.6C162.2 143.2 160.6 146.4 160.6 146.4L157.1 151.2C159.8 145.3 156.6 137.6 156.6 137.6L158.7 135.5C161.4 134.2 157.6 130.2 157.6 130.2C157.6 128.3 160.3 124.9 160.3 124.9C166.7 120.6 166.7 115.3 166.7 115.3C169.4 104.4 154.2 107 154.2 107C149.1 107.8 147.8 113.9 147.8 113.9C144.1 113.6 140.3 105.1 140.3 105.1C139.5 98.4004 136.3 94.2004 136.3 94.2004C134.2 91.5004 131.5 85.7004 131.5 85.7004C129.9 83.6004 130.4 78.0004 130.4 78.0004C130.7 73.5004 128.5 71.9004 128.5 71.9004C125.3 68.4004 126.6 72.2004 126.6 72.2004C128.5 74.6004 126.9 79.7004 126.9 79.7004L125.6 78.4004C121.9 75.2004 124.3 79.7004 124.3 79.7004C124.6 81.0004 125.4 83.7004 125.4 83.7004C127.3 85.3004 128.9 90.1004 128.9 90.1004C130 100.5 134.8 107.4 134.8 107.4L132.4 112.2C135.3 114.9 132.9 120.5 132.9 120.5C130.5 119.7 126.2 121.8 126.2 121.8C123.8 122.9 120.9 122.6 120.9 122.6C118.2 121 115.8 121 115.8 121C115.5 117.3 112.9 119.1 112.9 119.1C112.9 116.2 108.6 117.2 108.6 117.2C105.1 115.6 93.4004 106.5 93.4004 106.5L87.5004 101.2C86.2004 99.0004 84.4004 95.0004 84.4004 95.0004C81.7004 89.7004 76.9004 87.3004 76.9004 87.3004C72.4004 83.0004 66.2004 80.6004 66.2004 80.6004C63.3004 79.0004 60.9004 75.5004 60.9004 75.5004C62.5004 71.0004 50.8004 66.4004 50.8004 66.4004C43.3004 66.9004 48.9004 74.2004 48.9004 74.2004C52.1004 76.3004 53.2004 79.9004 53.2004 79.9004C54.5004 82.2004 60.1004 83.8004 60.1004 83.8004C63.3004 84.9004 67.0004 91.3004 67.0004 91.3004C69.4004 95.8004 73.9004 99.8004 73.9004 99.8004C76.3004 100.9 80.6004 105.9 80.6004 105.9C81.7004 110.7 87.8004 115.5 87.8004 115.5L86.5004 125.1C86.2004 127.8 88.4004 127.8 88.4004 127.8L97.2004 131.5L95.6004 133.9L85.7004 132C84.9004 128.3 81.7004 129.6 81.7004 129.6C79.3004 130.4 75.3004 130.7 75.3004 130.7C70.0004 128.8 65.9004 133.6 65.9004 133.6C58.7004 142.1 78.7004 145.6 78.7004 145.6V147.7L89.3004 149.6C93.3004 150.1 101.3 146.1 101.3 146.1L135.1 146.9C145.2 148.2 147.9 165 147.9 165C150.6 171.7 155.4 167.4 155.4 167.4C161.5 163.7 165 149 165 149C165.8 145.3 167.7 140.2 167.7 140.2C170.2 135.8 168.1 129.4 168.1 129.4Z" fill="#693CBA"/>
<path d="M70.8008 64.101C78.5008 67.601 83.1008 59.801 83.1008 59.801C86.3008 53.401 80.2008 48.301 80.2008 48.301C72.2008 44.301 67.4008 50.401 67.4008 50.401C61.2008 59.001 70.8008 64.101 70.8008 64.101Z" fill="#693CBA"/>
</svg>
